/* XPM */
static char *result[] = {
/* columns rows colors chars-per-pixel */
"50 50 12 1 ",
"  c #757022",
". c gray46",
"X c #E61010",
"o c #C62828",
"O c #43A047",
"+ c #4CAF50",
"@ c #54C458",
"# c #FFE342",
"$ c #FEE761",
"% c gray55",
"& c gray62",
"* c None",
/* pixels */
"*.....*****............................*****.....*",
"..&&&..**..&&&&&&&&&&&&oooo&&&o&&&&&&&&..**..&&%..",
".&&%%&...&oooooo&&&&&&o&oo&o&o&&&&ooooooo...&&&%%.",
".&&%%%.&&&&o&&&o&&&&&o&o&&o&o&&&&&&&o&&&o&&.&&&&%.",
"&&&%%%.&&&o&o&&&&&&&&o&&oo&o&&&&&&&o&ooo&&&.&&&&%.",
"&&%&%%.&&&&&ooo&&&&&o&o&&&o&&&&&&&&&&o&&&o&.&&&&%%",
"&&%%%&.&&&o&&&o&&&&ooooooo&&&&&&&&&o&oooo&&.&&&&%%",
"&&&%%%.&&&&............................&o&&.&&&%&%",
"&&&%%%.&&&**@###$$################### **&&&.&&&%&%",
"&&&%&%.@@@@@@#$$$##$$$$$$$$####$$$### @@@@@.&&&%&%",
"&&&%%@@@O@@+@#$#$$$$$$$##############@+@O+@@@&&%&%",
"&&&%@@++O+@@@#$$####$$$$$$$$$$$##$$##@@+O+++@@&%&%",
"&&&@@+++O@O+@#$$##########$$$$$##$$$#@@@O+++O@@@%%",
"&@@@O+++O+@@@#$#$#######$$###$####$##@@@O+++O++@@%",
"@@O+O+++O@@@@#$#$##$###$####$#$###$##@@@@+++O++O@@",
"@+O+O+++O+@@@#$$#$$##$$#####$$$$$$#$#@@+@+++O++O+@",
"@+O+O+++O@O@@#$$$$$#$##$$$##$##$$$###@@+O+++O++O+@",
"@+O+O+++O@@@@#$$####$$$#$###$#$$$$###@+@@+++X++O+@",
"@+O+O+X+O@@+@$$$#####$$$##$$#$$$$#$$#@+@O@+XO++O+@",
"@+O+OXX+@+O@@$$$####$$$$$$$$$$$$$$$##@@+O++XO++O+@",
"@+O+OX+XXX@@@$#$##$$$$$$$$$$$$$$#$$$#@@+@+XXO++O+@",
"@+XXXXXX@+O@@$##$$#$##$#$$$$#$##$$#$#@@+@+X+O++O+@",
"@+O+OX++O@@+@#$$#$#$#$##$$$$$####$#$$@+@@+X+O++O+@",
"@+O+OX++O@@+@#$$#$$##$###$$$$####$#$$@@@@@X+O++O+@",
"@+O+OX++@+O@@#$$$$$$$$$$$$$$#$$#$$#$#@++OXX+O++O+@",
"@+O+OX+@@+@+@###$####$$$$$##$##$$##$#@@+OX++O++O+@",
"@+OXXXXXO@O@@####$##$$#$##$#$##$$$$$#@+@OX++O++O+@",
"@+OXOX+XX+O@@#$##$#$$$$$#$###$#$#$$##@@+X++XX++O+@",
"@+OXOX++XX@+@#$##$###$##$$$##$###$$##@++X+XXXX+O+@",
"@+OXOX++XXO@@#$##$$##$##$##$$$$$$$$$#@@@XXX+OX+O+@",
"@+OXOXXXOXX+@#$$#$$#$###$####$$$$##$$@+@XX++OXXO+@",
"@+OXXXX+O@X@@#$$##$$###$###$$$$#$###$@+XX+++O+XO+@",
"@+O+O+XX@+@+@#$$$$$#####$$$####$$$#$#@@XO@++O+XO+@",
"@+O+O+++O@@@@#$$$$$####$$#$$$$$$$$#$#@+@O+++O+XX+@",
"@+O+O+++@@O@@##$#$$$$$$$$$$$$##$$#$$$@@@@@++O++O+@",
"@+O+O+++O+@+@##$$$$##$$$$$$$####$#$$$@+@O@@@O++O+@",
"@+O+O+++@+O@@##$$$$##$##$$#$####$$$#$@@@O+++O++O+@",
"@+O+O+++O@@+@##$$$#$#$$$##$###$$#$$#$@@+@@++O++O+@",
"@+O+O++@O++@@##$$$$$$$$$$$$$$$###$$#$@+@O@++O++O+@",
"@+O+O++@O@@O@##$###$$$$#####$$$$$$$#$@@+O@++O++O+@",
"@+O+O+++O@@@@#$$##$#$$#$$$$##$$$$$$#$@+@O@++O++O+@",
"@+O+O++O@@@O@#$$##$$$$$$$$$$$###$#$$#@+@@@++O++O+@",
"@+O+O++O+@O@@#$$###$$$$##$$####$$#$$#@@+O@++O++O+@",
"@+O+O++O@@@@@#$$###$$$$$$$$##$$#$$$$#@+@O@++O++O+@",
"@+O+O++O+@@@@#$$##$$$$$$$$$$$$$#$$$$#@+@@+++O++O+@",
"@+O+O++O+@O@@##$##$$##$###$$$##$$$$$#@@+@@++O++O+@",
"@+O+O++O++@@@##$##$##$##$$$$$$$$$$$$#@+@O+++O++O+@",
"@+O+O++O+@@@@#$$##$##$##$$#####$$##$#@@@O+++O++O+@",
"@+O+O+++@@@##$$#$$$$$$$$$#####$##$#$###@@@@+O++O+@",
"@@@@@@@@@####$$$$$###$$$$$$$$$$##$$$#####@@@@@@@@@"
};
