/* XPM */
static char *result[] = {
/* columns rows colors chars-per-pixel */
"50 50 12 1 ",
"  c gray46",
". c #C62828",
"X c #388E3C",
"o c #429645",
"O c #43A047",
"+ c #4CAF50",
"@ c #54C458",
"# c #FFE342",
"$ c #FEE761",
"% c gray55",
"& c gray62",
"* c None",
/* pixels */
"*     *****                            *****     *",
"  &&&  **  &&&&&&&&&&&&....&&&.&&&&&&&&  **  &&%  ",
" &&%%&   &......&&&&&&.&..&.&.&&&&.......   &&&%% ",
" &&%%% &&&&.&&&.&&&&&.&.&&.&.&&&&&&&.&&&.&& &&&&% ",
"&&&%%% &&&.&.&&&&&&&&.&&..&.&&&&&&&.&...&&& &&&&% ",
"&&%&%% &&&&&...&&&&&.&.&&&.&&&&&&&&&&.&&&.& &&&&%%",
"&&%%%& &&&.&&&.&&&&.......&&&&&&&&&.&....&& &&&&%%",
"&&&%%% &&&&                            &.&& &&&%&%",
"&&&%%% &&&@@@@@@@@+$$$#######$$$+@@@@@@@&&& &&&%&%",
"&&&%&% &&@@++O++O@@@##$$$$####$@@@Ooooo@@&& &&&%&%",
"&&&%%& &@@O++O++O++@$###$$#####@++o+oOo+@@& &&&%&%",
"&&&%%%@@@+O++O++O++@#$##$$$##$$@++O++Oo+O@@@&&&%&%",
"&&&%%%@+++O++O++O++@$##$#$#$$#$@++O+oo+oOoo@&&&%%%",
"&&%&%&@+++O++O++O++@$#$##$####$@++O++OooOoo@&&&%%%",
"&&&%%%@+++O++O++O++@$$##$#$$###@++O++o++O++@&&&&&%",
"&&&%%%@+++O++O++O++@###$#######@++O++oooOoo@&&&%%%",
"&&&%%&@+++O++O++O++@#########$$@++O+oOo+O++@&&&&%%",
"&&&%&%@+++O++O++O++@######$$###@++O+oO++Ooo@&&%%%%",
"&&&%&%@+++O++O++O++@#$$##$$#$$$@++Oo+o+oO+o@&&&%&%",
"&&&%&%@+++O++O++O++@$##$#######@++O++oo+Ooo@&&&&%%",
"&&&%%%@OOOOOOOOOOOO@#$##$##$$##@OOOOOooOoOO@&&&&%%",
"&&&%%&@XXXXXXXXXXXX@#####$#$$$#@XXXXXXXXXXX@&&&&%%",
"&&&%%&@+++O++O++O++@$####$$$#$$@++O+oOo+O++@&&&%&%",
"&&&%%&@+++O++O++O++@$##########@++Oo+O+oOoo@&&&&%%",
"&&&%&%@+++O++O++O++@###$######$@++O++o+oOoo@&&&%&%",
"&&&%%%@+++O++O++O++@$$####$#$##@++O++oooOo+@&&&%%%",
"&&%&%&@+++O++O++O++@$$$##$#####@++Oo+O+oooo@&&&&%%",
"&&%%%&@+++O++O++O++@#######$##$@++O+oooooo+@&&&%%%",
"&&&%&%@+++O++O++O++@###$$#####$@++Oo+o+oO+o@&&&%%%",
"&&%&%&@+++O++O++O++@#$######$#$@++O++OooOo+@&&&%%%",
"&&&%%&@+++O++O++O++@##$$###$#$#@++O+oO+oooo@&&%&%%",
"&&&%&%@+++O++O++O++@##$#$####$#@++O++OooOoo@&&&%%%",
"&&%%%&@+++O++O++O++@###$###$$#$@++O+oo+oO+o@&&&%%%",
"&&&%%%@+++O++O++O++@#####$$$###@++O++Oo+ooo@&&&%%%",
"&&%%%&@+++O++O++O++@#####$#$##$@++O+oO+oO++@&&&&%%",
"&&%%&%@+++O++O++O++@####$##$$##@++O++O++o+o@&&&%%%",
"&&&%%&@OOOOOOOOOOOO@$##$#$$#$#$@OOOOoooOOoO@&&&%%%",
"&&&%%&@XXXXXXXXXXXX@$####$$#$$#@XXXXoXXoXXX@&&&%%%",
"&&&%%%@+++O++O++O++@#####$$####@++O++o+oo+o@&&&%%%",
"&&&%&%@+++O++O++O++@###$$####$#@++O++oooooo@&&&%%%",
"&&&%%&@+++O++O++O++@####$##$#$#@++O++oooO++@&&&%%%",
"&&&%&%@+++O++O++O++@$####$$$###@++O++o+ooo+@&&&%%%",
"&&&%%%@+++O++O++O++@###########@++O++OooOo+@&&&%%%",
"&&%%%%@+++O++O++O++@$##$$$$#$##@++O++O+oO+o@&&&%%%",
"&&&&%%@+++O++O++O++@$###$###$$#@++O++OooOoo@&&&%%%",
"&&%%%%@+++O++O++O++@#$###$$####@++O++oo+O+o@&&%%%%",
"&&&%%&@+++O++O++O++@##$########@++O++Oo+oo+@&&%%%%",
"&&&%%%@+++O++O++O++@##$#$$$$###@++O+oO++O+o@&&&&%%",
"&%%%%%@+++O++O++O++@######$$$##@++O++o+ooo+@&&%%%%",
"&&%%%%@+++O++O++O++@$$$$#######@++O++o++Oo+@&&&%%%"
};
