/* XPM */
static char *result[] = {
/* columns rows colors chars-per-pixel */
"50 50 20 1 ",
"  c black",
". c #26231F",
"X c #332F29",
"o c #6B0202",
"O c #700202",
"+ c #780202",
"@ c #403B33",
"# c #4D473E",
"$ c #595247",
"% c #595248",
"& c #665E51",
"* c #665E52",
"= c #665E53",
"- c #6E6557",
"; c #6E6558",
": c #736A5C",
"> c gray75",
", c gray80",
"< c white",
"1 c None",
/* pixels */
"11111111111111111111111111111111111111111111111111",
"11111111111111111111111111111111111111111111111111",
"11111111111111111111111111111111111111111111111111",
"111111111111X1111111111111111111111111111111111111",
"11111111111..1111111111111111111111111111111111111",
"111111111111.1111111111.11.11111111111111111111111",
"111111111111.1111.11111.11.111111111111111111111.1",
"111111.11111.1111.11111....11111111111111.1111..11",
"111111..1111..11..111.1.XX.1.111111111111.1111.111",
"111111...111..11..111.1.@@.1.111111111111.111..111",
"1111111..111.11..1111.1.$$.1.111111111111..11..111",
"1111111...11..1..1111.1.&&.1.11111111111..11..1111",
"1111111...11..1..1111...::...11111111111..11.11111",
"1111111...11..1..11.1..X::X..1.111111111..1..111.X",
"11111111..11..1..1..1.@@::@@.1.111111.1..11..11...",
"1111111.#.1......1..1.#@::@#.1..1111..1..1..11....",
"1111111.$.1.........1.$::::$.1..1111........11...1",
"11111111$.1.#.$@X...1.-::::-.1X.11111XX@....11@.11",
"11...111..1...$@@..@..::::::.1..1111.@@$...11##.11",
"11....11..1.XX$@@....$::::::$...1111.@@$...1...111",
"11..@X......%X$@@.1.@-X::::X-@.11111.X$$X..1...111",
"111.@XXX$XX%XX$X.11.#:X::::X:#.1.11..X#$X%.1..1111",
"1111.##X$XX=X#.X.11.$:X::::X:$.1.11...#X%X....1111",
"1111...X&@X=@#.X.1..&:XX::XX:&.1.11.#.#X=X........",
"11111...##X=#@-#.1..-:@X::X@:-...11.$##@=XX$XX.@..",
"111111.X##X%#@&$.1..:.:X::X:.:..X1..&@@#XX#$X##...",
"111111.X#XX=%X$.....::.----.::..11..#X%=X##XX#...1",
"111111..$&XX=#@$...&X&.    .&X&..X.@@==%X#.....111",
"1111111.#-@X@#.#..@&@# ++++ #@&@X@XX#%XXX##...1111",
"1111111..:$.@#.X..#-# ++++++ #-#@@XX@@@@&$..111111",
"1111111..&&@.@X..@&$X oO  Oo X$&$$#@..$-$..1111111",
"1111111..#@.@##$$@:&@  oOOo  @&:--##.@&-..11111111",
"11111111.$.@@$--$$::$@  oo  @$::&&-$@@#...11111111",
"11111111..X$$-:::$::-$@    @$-::&&-$@.#..111111111",
"11111111X.@&@$$#XX-::&@ XX @&::-XXX$$X...X11111111",
"111111111.#&XXXXXX&::& <<<< &::&XXXXXX&#.111111111",
"111111111.#$.XXXX#:::XX<,,<XX:::#XXXX.$#.111111111",
"111111111.$$X#@#@@-:XXX<  <XXX:-@@#@#X$$.111111111",
"111111111.&#@#@*#X&:X X XX X X:&X#*@#@#&.111111111",
"111111111.&..#@*#X&:X<X    X<X:&X#*@#....111111111",
"111111111..X.#X*%X$::<      <::$X%*X#.X..111111111",
"111111111..1..X%*@.-:, X<<X ,:-.@*%...1..111111111",
"111111111.@11X.%.#.&:: X<<X ::&.#;%.X11..111111111",
"111111111.X111X..%..:::X<<X:::..%..X111..111111111",
"111111111.X1111.;;@.&:::>>:::&.@;;.1111X.111111111",
"111111111.11111.*:%.#-::::::-#.%:*.11111.111111111",
"11111111..111..X#:%.X$&-::-&$X.%:#X..111..11111111",
"1111111.X.111.@##*.X..#$&&$#..X.*##@.111.X.1111111",
"111111.X#.11......@1X@......@X1@......11.#X.111111",
"111111....11X@.@XX1111..XX..1111XX@.@X11....111111"
};
