/* XPM */
static char *result[] = {
/* columns rows colors chars-per-pixel */
"50 50 19 1 ",
"  c black",
". c #26231F",
"X c #332F29",
"o c #6B0202",
"O c #700202",
"+ c #780202",
"@ c #403B33",
"# c #4D473E",
"$ c #595247",
"% c #595248",
"& c #665E51",
"* c #665E52",
"= c #665E53",
"- c #6E6557",
"; c #6E6558",
": c #736A5C",
"> c gray80",
", c white",
"< c None",
/* pixels */
"<<<<<<<<<<<<<<<<<<<<<<<<<<<<<<<<<<<<<<<<<<<<<<<<<<",
"<<<<<<<<<<<<<<<<<<<<<<<<<<<<<<<<<<<<<<<<<<<<<<<<<<",
"<<<<<<<<<<<<<<<<<<<<<<<<<<<<<<<<<<<<<<<<<<<<<<<<<<",
"<<<<<<<X<<<<<<<<<<<<<<<<<<<<<<<<<<<<<<<<<<X<<<<<<<",
"<<<<<<<.<<<<<<<<<<<<<<<<<<<<<<<<<<<<<<<<<..<<<<<<<",
"<<<<<<<<.<<<<.<<<<<<<<<.<<.<<<<<<<<<.<<<<.<<<<<<<<",
"<<<<<<<<.<<<<.<<<<<<<<<.<<.<<<<<<<<<.<<<<.<<<<<<<<",
"<<<<<<<<..<<<.<<<<<<<<<....<<<<<<<<<.<<<..<<<<<<<<",
"<<..<<<<..<<..<<<<<<<.<.XX.<.<<<<<<<..<<..<<<<..<<",
"<<X..<<<<.<<..<<<<<<<.<.@@.<.<<<<<<<..<<.<<<<..X<<",
"<<<.X.<<<.<<..<<<<<<<.<.$$.<.<<<<<<<..<<.<<<.X.<<<",
"<<<...<<<..<..<<<<<<<.<.&&.<.<<<<<<<..<<.<<<...<<<",
"<<<<.@.<<..<..<<.<<<<...::...<<<<<<<..<..<<.@.<<<<",
"<<<<...<<..<..<..<<.<..X::X..<.<<<.<..<..<<...<<<<",
"<<<<<..<<..<..<.X<<.<.@@::@@.<.<<..<..<..<<@.<<<<<",
"<<<<<.#.<.......<<..<.#@::@#.<..<........<.#.<<<<<",
"<<<<<.$.<.#.$@X.<<..<.$::::$.<..<X.X@$...<.$.<<<<<",
"<<<<<.$.<.#.$@@.<<..<.-::::-.<X.<<.@@$...<...<<<<<",
"<<<<<<..<...$@@.<<.@..::::::.<..<<.@@$...<..<<<<<<",
"<..<<<..<.%X$.@.<<...$::::::$...<<.@.$X%.<..<<<..<",
".....<....%X$$X.<<<.@-X::::X-@.<<<.X$$X%....<.....",
"X..@X..$.X=X#.X.<.<.#:X::::X:#.<.<.X.#X=X....X@@.X",
"<.@.#XX$XX=X#.X.<.<.$:X::::X:$.<.<.X.#X=XX$XX#...<",
"<<<.&#X&@X=@#-#.<.<.&:XX::XX:&.<.<.#-#@=X@&X#&.<<<",
"<<<...X$#X=#@&$.<...-:@X::X@:-...<.$&@#=X#$X#..<<<",
"<<<<....#X=%X$-..X..:.:X::X:.:..X<.-$X%=X#....<<<<",
"<<<<<.X#$X%=X#.$.<..::.----.::..<<..#X=%X$#..<<<<<",
"<<<<<<..&&X.=@@#...&X&.::::.&X&....@@=.X&&..<<<<<<",
"<<<<<<X.$-@@%#.X.X@&@#      #@&@X$X.#%@@-$.X<<<<<<",
"<<<<<<<.#:$.@XX.@@#-# ++++++ #-#@@.XX@.$:#.<<<<<<<",
"<<<<<<<..-&@.@#$$$&$X oO  Oo X$&$$$#@.@&-..<<<<<<<",
"<<<<<<<X..#.@$.---:&@  oOOo  @&:---.$@.#..X<<<<<<<",
"<<<<<<<<.$.@$-:::-::$@  oo  @$::-:::-$@.$.<<<<<<<<",
"<<<<<<<<..X$$--&&$::-$@    @$-::$&&--$$X..<<<<<<<<",
"<<<<<<<<X.@&@$$#XX-::&@ XX @&::-XXX$$@&@.X<<<<<<<<",
"<<<<<<<<<.#&XXXXXX&::& ,,,, &::&XXXXXX&#.<<<<<<<<<",
"<<<<<<<<<.#$.XXXX#:::XX,>>,XX:::#XXXX.$#.<<<<<<<<<",
"<<<<<<<<<.$$X#@#@@-:XXX,  ,XXX:-@@#@#X$$.<<<<<<<<<",
"<<<<<<<<<.&#@#@*#X&:X X XX X X:&X#*@#@#&.<<<<<<<<<",
"<<<<<<<<<.&..#@*#X&:X,X    X,X:&X#*@#....<<<<<<<<<",
"<<<<<<<<<..X.#X*%X$::,      ,::$X%*X#.X..<<<<<<<<<",
"<<<<<<<<<..<..X%*@.-:: X,,X ::-.@*%...<..<<<<<<<<<",
"<<<<<<<<<.@<<X.%.#.&::::>>::::&.#;%.X<<..<<<<<<<<<",
"<<<<<<<<<.X<<<X..%..::::::::::..%..X<<<..<<<<<<<<<",
"<<<<<<<<<.X<<<<.;;@.&::::::::&.@;;.<<<<X.<<<<<<<<<",
"<<<<<<<<<.<<<<<.*:%.#-::::::-#.%:*.<<<<<.<<<<<<<<<",
"<<<<<<<<..<<<..X#:%.X$&-::-&$X.%:#X..<<<..<<<<<<<<",
"<<<<<<<.X.<<<.@##*.X..#$&&$#..X.*##@.<<<.X.<<<<<<<",
"<<<<<<.X#.<<......@<X@......@X<@......<<.#X.<<<<<<",
"<<<<<<....<<X@.@XX<<<<..XX..<<<<XX@.@X<<....<<<<<<"
};
