/* XPM */
static char *result[] = {
/* columns rows colors chars-per-pixel */
"50 50 15 1 ",
"  c black",
". c gray1",
"X c #1E295D",
"o c #C75C28",
"O c #E76B24",
"+ c #BF922D",
"@ c #F3EC1A",
"# c #F18E52",
"$ c #28AEE4",
"% c gray65",
"& c #F5B184",
"* c gray85",
"= c gray98",
"- c white",
"; c None",
/* pixels */
";;;;;;;;;;;;;;;;;;;;;;;;;;;;;;;;;;;;;;;;;;;;;;;;;;",
";;;;;;;;;;;;;;;;;;;;;;;;;;;;;;;;;;;;;;;;;;;;;;;;;;",
";;;;;;;;;;;;;;;;;;;;;;;+++;++++;;;;;;;;;;;;;;;;;;;",
";;;;;;;;;;;;;;;;;;;;;;;+@@++@@+++;;;;;;;;;;;;;;;;;",
";;;;;;;;;;;;;;;;;;;;++++@@@+@@@++;+;;;;;;;;;;;;;;;",
";;;;;;;;;;;;;;;;;;;++@@+@@@@@@@+@++;;;;;;;;;;;;;;;",
";;;;;;;;;;;;;;;;;;;;;+@@@@@@@@@@@+++;;;;;;;;;;;;;;",
";;;;;;;;;;;;;;;;;;;;++@@@@@@@@@@++@+;;;;;;;;;;;;;;",
";;;;;;;;;;;;;;;;;;+++@@XXXXXXXXXX%@+;;;;;;;;;;;;;;",
";;;;;;;;    ;;   ;;;;XX%%%%X%***%%%+;;;;;;;;;;;;;;",
";;;;  ;  ;;    ;      XXXXXX%;**%%X;;;;;;;;;;;;;;;",
";;;;;   ;;;;;;;;;;;; ..&@XXXXXXXXXX;;;;;;;;;;;;;;;",
";;;;;;;;;;;;;;;;;;   ..&@&&=.&&=..;;;;;;;;;;;;;;;;",
";;;;;;;;;;;;;;     ;;;.&&&&=$&&=$.;;;;;;;;;;;;;;;;",
";;;;;;;;;;     ;;;;;;;.&&&&&&&&&&.;;;;;;;;;;;;;;;;",
";;;;;;;    ;;;;;;;;;;;;.&&&&&&&o&.;;;;;;;;;;;;;;;;",
";;;;;;  ;;;;;;;;;;;;;;;..&&&&oo& ;;;;;;;;;;;;;;;;;",
";;;;;;;;;;;;;;;;;;;;;;..%.&&&&& ;;;;;;;;;;;;;;;;;;",
";;;;;;;;;;;;;;;;;;;.....%%    ....;;;;;;;;;;;;;;;;",
";;;;;;;;;;;;;;;;...%%%%%....%%.O.%.;;;;;;;;;;;;;;;",
";;;;;;;;;;;;;;;..%%%..%%%%%.%%.O.%% ;;;;;;;;;;;;;;",
";;;;;;;;;;;;....%%%....%%%%.%%.O.%% ;;;;;;;;;;;;;;",
";;;;;;;;;;;..%%%%%..........%%.O.%% ;;;;;;;;;;;;;;",
";;;;;;;;;;;.%%%%%%..OOOOOOOO%%.O..% ;;;;;;;;;;;;;;",
";;;;;;;;;;.%%%%.....OOOOOOOOO%.OOO    ;;;;;;;;;;;;",
";;;;;;;;;..%%%%%.;;.OOOOOOOOO%.OOO %% ;;;;;;;;;;;;",
";;;;;;;;;..%%%%%.;;.OOOOOOOOO%%.OO %% ;;;;;;;;;;;;",
";;;;;;;;;.%%   ..;;...OOOOOOOO%.OO %% ;;;;;;;;;;;;",
";;;;;;;;;.. &&..;;;;;...OOOOO%%..... %    ;;;;;;;;",
";;;;;;;;;;.&&...;;;;;..............O %% &&   ;;;;;",
";;;;;;;;;;&&&&&&.;;;;.OOOOOOOOOOOOOOO% & &&& ;;;;;",
";;;;;;;;;.&&&&&&.;;;..O##OOOOOO.OOOOO  &&&&  ;;;;;",
";;;;;;;;;..&&&&.;;;.---OO##OOOO.OOOOOO     ;;;;;;;",
";;;;;;;;;;.....;;;;....----    O...OOO ;;;;;;;;;;;",
";;;;;;;;;;;;;;;;;;;.---...- ;;  #OOOOO.;;;;;;;;;;;",
";;;;;;;;;;;;;;;;;;.OOO----  ;;; ####OOO.;;;;;;;;;;",
";;;;;;;;;;;;;;;;;..##OOOOO ;;;;;  ##OOO.;;;;;;;;;;",
";;;;;;;;;;;;;;;;.##OOOOO ;;;;;;;;; ##OOO.;;;;;;;;;",
";;;;;;;;;;;;;;..##OOOOO ;;;;;;;;;; ##OOO.;;;;;;;;;",
";;;;;;;;;;;;;.###OOOOO ;;;;;;;;;;; ##OOO.;;;;;;;;;",
";;;;;;;;;;;;.O#OOOOOO.;;;;;;;;;;;; #OOOO.;;;;;;;;;",
";;;;;;;;;;;;....OOO. ;;;;;;;;;;;;;; .....;;;;;;;;;",
";;;;;;;;;;;;;.;;   ;;;;;;;;;;;;;;;;;....;;;;;;;;;;",
";;;;;;;;;;;  .    ;;;;;;;;;;;;;;;;;;.XX.;;;;;;;;;;",
";;;;;;;;;;.X%%XX ;;;;;;;;;;;;;;;;;;.X.....;;;;;;;;",
";;;;;;;;;.X%%XXX ;;;;;;;;;;;;;;;;;;.XXXXXX..;;;;;;",
";;;;;;;;.&&&&&&  ;;;;;;;;;;;;;;;;;;...XXX&&&.;;;;;",
";;;;;;;;........;;;;;;;;;;;;;;;;;;;;;;.......;;;;;",
";;;;;;;;;;;;;;;;;;;;;;;;;;;;;;;;;;;;;;;;;;;;;;;;;;",
";;;;;;;;;;;;;;;;;;;;;;;;;;;;;;;;;;;;;;;;;;;;;;;;;;"
};
