/* XPM */
static char *result[] = {
/* columns rows colors chars-per-pixel */
"50 50 174 2 ",
"   c #371F20",
".  c #3A1F21",
"X  c #342123",
"o  c #502827",
"O  c #5E2B27",
"+  c #5C2C28",
"@  c #576069",
"#  c #E43539",
"$  c #894737",
"%  c #8A4737",
"&  c #8B483A",
"*  c #B64625",
"=  c #BF4821",
"-  c #C24626",
";  c #C44625",
":  c #C14728",
">  c #CD612E",
",  c #DB7331",
"<  c #DD7632",
"1  c #DE7337",
"2  c #DF7437",
"3  c #DF7438",
"4  c #DD753D",
"5  c #E27335",
"6  c #E27236",
"7  c #E27237",
"8  c #A26849",
"9  c #B36945",
"0  c #B56D49",
"q  c #BF6F4A",
"w  c #BF6F4C",
"e  c #BF7047",
"r  c #B87448",
"t  c #AB7B74",
"y  c #FB535B",
"u  c #C26E4A",
"i  c #C26D4F",
"p  c #D56B45",
"a  c #2F9A48",
"s  c #359748",
"d  c #32984B",
"f  c #32994E",
"g  c #5DC445",
"h  c #5AC64D",
"j  c #60C462",
"k  c #FFA214",
"l  c #FFA215",
"z  c #F8A614",
"x  c #FDA414",
"c  c #FCA01B",
"v  c #FFC820",
"b  c #AD8577",
"n  c #B48D7A",
"m  c #B48D7B",
"M  c #B58D7D",
"N  c #E7AD52",
"B  c #ECAB50",
"V  c #DF9F6A",
"C  c #E79A63",
"Z  c #E59A64",
"A  c #E39D67",
"S  c #E49D66",
"D  c #E59D66",
"F  c #E59C67",
"G  c #E39B68",
"H  c #E69B6A",
"J  c #E59C68",
"K  c #E49C69",
"L  c #E59E68",
"P  c #E49E69",
"I  c #E49C6B",
"U  c #E69C6B",
"Y  c #E39B6E",
"T  c #E59B6C",
"R  c #E19D6F",
"E  c #EA9968",
"W  c #E89C68",
"Q  c #FAED58",
"!  c #A19798",
"~  c #A19898",
"^  c #9B9EA4",
"/  c #A4A3A1",
"(  c #A5A9AE",
")  c #ABABAF",
"_  c #B5A8A3",
"`  c #B7B2AD",
"'  c #A8ACB2",
"]  c #BCB8B3",
"[  c gray72",
"{  c #B9BCBF",
"}  c #F78187",
"|  c #F6818C",
" . c #EDB381",
".. c #FDC79F",
"X. c #F4CB9B",
"o. c #F7CA9A",
"O. c #F3CB9D",
"+. c #F2CB9F",
"@. c #F3CB9F",
"#. c #F5CA9D",
"$. c #F6CA9C",
"%. c #F6CA9D",
"&. c #F7CA9D",
"*. c #F7C99F",
"=. c #F5CA9E",
"-. c #F5CB9E",
";. c #F5CA9F",
":. c #F4CB9F",
">. c #F6CA9E",
",. c #F7CA9E",
"<. c #F7CB9E",
"1. c #F6CA9F",
"2. c #F3CC9C",
"3. c #F9C99B",
"4. c #FAC89A",
"5. c #FAC99C",
"6. c #F8CA9D",
"7. c #F8C89E",
"8. c #D6FF89",
"9. c #F1C9A3",
"0. c #F3CAA2",
"q. c #F6C9A1",
"w. c #F4CAA0",
"e. c #F0C9A7",
"r. c #F0CCA5",
"t. c #FEC3A8",
"y. c #F7DAB6",
"u. c #BFC2C5",
"i. c #FBE6C7",
"p. c #F7E7CD",
"a. c #F7E7CE",
"s. c #F8E2C9",
"d. c #FAE5C8",
"f. c #F9E6CB",
"g. c #FBE5CC",
"h. c #FBE5CD",
"j. c #F8E6CC",
"k. c #F9E6CD",
"l. c #F8E7CD",
"z. c #FAE6CC",
"x. c #FAE6CD",
"c. c #F8E6CE",
"v. c #F9E6CE",
"b. c #F8E6CF",
"n. c #FBE7CF",
"m. c #FDE4CE",
"M. c #F7E8C9",
"N. c #F4E9CE",
"B. c #F7E8CF",
"V. c #FBE8CD",
"C. c #F6E7D0",
"Z. c #F8E6D0",
"A. c #F9E6D0",
"S. c #F9E7D0",
"D. c #FCE4D0",
"F. c #FCE4D1",
"G. c #F3E8D2",
"H. c #FFF0DA",
"J. c #FFD1EF",
"K. c #FCFFF6",
"L. c #FFFFFB",
"P. c #FAFFFC",
"I. c #FFFEFC",
"U. c #FFFFFC",
"Y. c #FFFFFD",
"T. c #FFFDFF",
"R. c #FCFFFF",
"E. c #FDFFFF",
"W. c #FEFFFE",
"Q. c #FFFFFE",
"!. c #FFFEFF",
"~. c #FEFFFF",
"^. c white",
"/. c None",
/* pixels */
"/./././././././././././././././././././././././././././././././././././././././././././././././././.",
"/./././././././././././././././././././././././././././././././././././././././././././././././././.",
"/./././././././././././././././././././././././././././././././././././././././././././././././././.",
"/./././././././././././././././././././././././././././././././././././././././././././././././././.",
"/./././././././././././././././././././././././././././././././././././././././././././././././././.",
"/./././././././././././././././././././././././././././././././././././././././././././././././././.",
"/./././././././././././././././././././././././././././././././././././././././././././././././././.",
"/./././././././././././././././././././././././././././././././././././././././././././././././././.",
"/./././././././././././././././././././././././././././././././././././././././././././././././././.",
"/./././././././././././././././././././././././././././././././././././././././././././././././././.",
"/./././././././././././././././././././././././././././././././././././././././././././././././././.",
"/./././././././././././././././././././././././././././././././././././././././././././././././././.",
"/./././././././././././././././././././././././././././././././././././././././././././././././././.",
"/./././././././././././././././././././././././././././././././././././././././././././././././././.",
"/./././././././././././././././././././././././././././././././././././././././././././././././././.",
"/./././././././././././././././././././././././././././././././././././././././././././././././././.",
"/./././././././././././././././././././././././././././././././././././././././././././././././././.",
"/./././././././././././././././././././././././././././././././././././././././././././././././././.",
"/./././././././././././././././././././././././././././././././././././././././././././././././././.",
"/./././././././././././././././././.O o @ @ /./././.@ /././././././././././././././././././././././.",
"/./././././././././././././././././.  + ~.Q.u.Q.Q.( Q.Y.{ ' >./././././././././././././././././././.",
"/././././././././././././././././.c.c.. g.c.^ c.c.] p.` ' %.;.!././././././././././././././././././.",
"/./././././././././././././.G.x.c.v.v.V.X b / B 2 t f.D ~ <.9 ;.;.0././././././././././././././././.",
"/././././././././././././.z.c.a 6 Y.^.P.- > n , M [ r S.) % H.j.l.w.u ,././././././././././././././.",
"/././././././././././././.F.8.f d K.v k I.C m i.b.h.& _ ! J I q U L $ ;.6./././././././././././././.",
"/././././././././././././.h g s ;.Q.Q.*.E.s.7 d.k.$.A.n.Y F q K G 7.5.: 6./././././././././././././.",
"/././././././././././././.t.j R ^.Q z ^.U.c.3 4 5 W 2.A U ; M.V ;.z.= U.S /././././././././././././.",
"/./././././././././././.0 X.9.O.l k x c ^. .N C.y } m.1 * P N.a.Z ;.L.c././././././././././././././.",
"/././././././././././././.;.3.4.R.+.+.e.c.p < # J.^.| T H &.#.o.T.c.c.c././././././././././././././.",
"/././././././././././././.;.;.;.;.q.1.r.W.W.W.W.W.W.W.W.W.v.v.b.c.c.c.Z././././././././././././././.",
"/./././././././././././././.;.;.;.;.;.;.;.c.c.c.c.c.c.c.c.c.c.c.c.c.c.S /./././././././././././././.",
"/./././././././././././././.;.;.;.;.;.;.;.y.c.c.c.c.c.c.c.c.c.c.c.c.c./././././././././././././././.",
"/././././././././././././././.;.;.;.;.;.;.-.c.c.c.c.c.c.c.c.c.c.c.c.E /././././././././././././././.",
"/././././././././././././././.;.;.;.;.;.;.;.>.c.c.c.c.c.c.c.c.c.c.B././././././././././././././././.",
"/././././././././././././././././.;.;.;.;.;.;.=.l.c.c.c.c.c.c.c.e /././././././././././././././././.",
"/./././././././././././././././././.:.;.;.;.;.;.;.;.;.b.b.D.8 e /./././././././././././././././././.",
"/./././././././././././././././././././...@.;.;.;.;.;.@.i /././././././././././././././././././././.",
"/./././././././././././././././././././././.q q q q w /././././././././././././././././././././././.",
"/./././././././././././././././././././././././././././././././././././././././././././././././././.",
"/./././././././././././././././././././././././././././././././././././././././././././././././././.",
"/./././././././././././././././././././././././././././././././././././././././././././././././././.",
"/./././././././././././././././././././././././././././././././././././././././././././././././././.",
"/./././././././././././././././././././././././././././././././././././././././././././././././././.",
"/./././././././././././././././././././././././././././././././././././././././././././././././././.",
"/./././././././././././././././././././././././././././././././././././././././././././././././././.",
"/./././././././././././././././././././././././././././././././././././././././././././././././././.",
"/./././././././././././././././././././././././././././././././././././././././././././././././././.",
"/./././././././././././././././././././././././././././././././././././././././././././././././././.",
"/./././././././././././././././././././././././././././././././././././././././././././././././././.",
"/./././././././././././././././././././././././././././././././././././././././././././././././././."
};
