/* XPM */
static char *result[] = {
/* columns rows colors chars-per-pixel */
"50 50 174 2 ",
"   c #371F20",
".  c #3B1C21",
"X  c #391F21",
"o  c #3A1E21",
"O  c #3A1F21",
"+  c #342123",
"@  c #502827",
"#  c #5E2B27",
"$  c #5C2C28",
"%  c #576069",
"&  c #E43539",
"*  c #894737",
"=  c #8A4737",
"-  c #8B483A",
";  c #B64625",
":  c #BF4821",
">  c #C24626",
",  c #C44625",
"<  c #C14728",
"1  c #CD612E",
"2  c #DB7331",
"3  c #DD7632",
"4  c #DE7337",
"5  c #DF7437",
"6  c #DF7438",
"7  c #DD753D",
"8  c #E27335",
"9  c #E27236",
"0  c #E27237",
"q  c #A26849",
"w  c #B36945",
"e  c #B56D49",
"r  c #BF6F4A",
"t  c #BF7047",
"y  c #B87448",
"u  c #AB7B74",
"i  c #FB535B",
"p  c #C26E4A",
"a  c #C26D4F",
"s  c #D56B45",
"d  c #2F9A48",
"f  c #359748",
"g  c #32984B",
"h  c #32994E",
"j  c #5DC445",
"k  c #5AC64D",
"l  c #60C462",
"z  c #FFA214",
"x  c #FFA215",
"c  c #F8A614",
"v  c #FDA414",
"b  c #FCA01B",
"n  c #FFC820",
"m  c #AD8577",
"M  c #B48D7A",
"N  c #B48D7B",
"B  c #B58D7D",
"V  c #E7AD52",
"C  c #ECAB50",
"Z  c #DF9F6A",
"A  c #E79A63",
"S  c #E59A64",
"D  c #E39D67",
"F  c #E49D66",
"G  c #E59D66",
"H  c #E59C67",
"J  c #E39B68",
"K  c #E69B6A",
"L  c #E59C68",
"P  c #E49C69",
"I  c #E59E68",
"U  c #E49E69",
"Y  c #E49C6B",
"T  c #E69C6B",
"R  c #E39B6E",
"E  c #E59B6C",
"W  c #E19D6F",
"Q  c #EA9968",
"!  c #E89C68",
"~  c #FAED58",
"^  c #A19798",
"/  c #A19898",
"(  c #9B9EA4",
")  c #A4A3A1",
"_  c #A5A9AE",
"`  c #ABABAF",
"'  c #B5A8A3",
"]  c #B7B2AD",
"[  c #A8ACB2",
"{  c #BCB8B3",
"}  c gray72",
"|  c #B9BCBF",
" . c #F78187",
".. c #F6818C",
"X. c #EDB381",
"o. c #FDC79F",
"O. c #F4CB9B",
"+. c #F7CA9A",
"@. c #F3CB9D",
"#. c #F2CB9F",
"$. c #F3CB9F",
"%. c #F5CA9D",
"&. c #F6CA9C",
"*. c #F6CA9D",
"=. c #F7CA9D",
"-. c #F7C99F",
";. c #F5CA9E",
":. c #F5CB9E",
">. c #F5CA9F",
",. c #F6CA9E",
"<. c #F7CA9E",
"1. c #F7CB9E",
"2. c #F6CA9F",
"3. c #F3CC9C",
"4. c #F9C99B",
"5. c #FAC89A",
"6. c #FAC99C",
"7. c #F8CA9D",
"8. c #F8C89E",
"9. c #D6FF89",
"0. c #F1C9A3",
"q. c #F3CAA2",
"w. c #F6C9A1",
"e. c #F4CAA0",
"r. c #F0C9A7",
"t. c #F0CCA5",
"y. c #FEC3A8",
"u. c #F7DAB6",
"i. c #BFC2C5",
"p. c #FBE6C7",
"a. c #F7E7CD",
"s. c #F7E7CE",
"d. c #F8E2C9",
"f. c #FAE5C8",
"g. c #F9E6CB",
"h. c #FBE5CC",
"j. c #FBE5CD",
"k. c #F8E6CC",
"l. c #F9E6CD",
"z. c #F8E7CD",
"x. c #FAE6CC",
"c. c #FAE6CD",
"v. c #F8E6CE",
"b. c #F9E6CE",
"n. c #F8E6CF",
"m. c #FBE7CF",
"M. c #FDE4CE",
"N. c #F7E8C9",
"B. c #F4E9CE",
"V. c #F7E8CF",
"C. c #FBE8CD",
"Z. c #F6E7D0",
"A. c #F9E6D0",
"S. c #F9E7D0",
"D. c #FCE4D0",
"F. c #FCE4D1",
"G. c #F3E8D2",
"H. c #FFF0DA",
"J. c #FFD1EF",
"K. c #FCFFF6",
"L. c #FFFFFB",
"P. c #FAFFFC",
"I. c #FFFEFC",
"U. c #FFFFFC",
"Y. c #FFFFFD",
"T. c #FFFDFF",
"R. c #FCFFFF",
"E. c #FDFFFF",
"W. c #FEFFFE",
"Q. c #FFFFFE",
"!. c #FFFEFF",
"~. c #FEFFFF",
"^. c white",
"/. c None",
/* pixels */
"/./././././././././././././././././././././././././././././././././././././././././././././././././.",
"/./././././././././././././././././././././././././././././././././././././././././././././././././.",
"/./././././././././././././././././././././././././././././././././././././././././././././././././.",
"/./././././././././././././././././././././././././././././././././././././././././././././././././.",
"/./././././././././././././././././././././././././././././././././././././././././././././././././.",
"/./././././././././././././././././././././././././././././././././././././././././././././././././.",
"/./././././././././././././././././././././././././././././././././././././././././././././././././.",
"/./././././././././././././././././././././././././././././././././././././././././././././././././.",
"/./././././././././././././././././././././././././././././././././././././././././././././././././.",
"/./././././././././././././././././././././././././././././././././././././././././././././././././.",
"/./././././././././././././././././././././././././././././././././././././././././././././././././.",
"/./././././././././././././././././././././././././././././././././././././././././././././././././.",
"/./././././././././././././././././././././././././././././././././././././././././././././././././.",
"/./././././././././././././././././././././././././././././././././././././././././././././././././.",
"/./././././././././././././././././././././.i.i././.i./././././././././././././././././././././././.",
"/././././././././././././././././././././././.i./././.i././././././././././././././././././././././.",
"/././././././././././././././././.X % /./././.i./././.i././././././././././././././././././././././.",
"/././././././././././././././././.% # /./././.i././.i./././././././././././././././././././././././.",
"/././././././././././././././././.o . % /././././.i././././././././././././././././././././././././.",
"/././././././././././././././././.% # @ % % i.% % i.% % /.i././././././././././././././././././././.",
"/././././././././././././././././.,.  $ ~.Q.i.Q.Q._ Q.Y.| [ ,./././././././././././././././././././.",
"/./././././././././././././././.!.v.v.O h.v.( v.v.{ a.] [ *.>.!.!./././././././././././././././././.",
"/./././././././././././././.G.c.v.b.b.C.+ m ) C 5 u g.G / 1.w >.>.q././././././././././././././././.",
"/././././././././././././.x.v.d 9 Y.^.P.> 1 M 2 B } y S.` = H.k.z.e.p <././././././././././././././.",
"/././././././././././././.F.9.h g K.n z I.A N p.n.j.- ' ^ L Y r T I * >././././././././././././././.",
"/././././././././././././.k j f >.Q.Q.-.E.d.0 f.l.&.A.m.R H r P J 8.6.< 7./././././././././././././.",
"/././././././././././././.y.l W ^.~ c ^.U.v.6 7 8 ! 3.D T , N.Z >.x.: U././././././././././././././.",
"/./././././././././././.e O.0.@.x z v b ^.X.V Z.i  .M.4 ; U B.s.S >.L.v././././././././././././././.",
"/././././././././././././.>.4.5.R.#.#.r.v.s 3 & J.^...E K =.%.+.T.v.v.v././././././././././././././.",
"/././././././././././././.>.>.>.>.w.2.t.W.W.W.W.W.W.W.W.W.b.b.n.v.v.v./././././././././././././././.",
"/./././././././././././././.>.>.>.>.>.>.>.v.v.v.v.v.v.v.v.v.v.v.v.v.v.F /./././././././././././././.",
"/./././././././././././././.>.>.>.>.>.>.>.u.v.v.v.v.v.v.v.v.v.v.v.v.v./././././././././././././././.",
"/././././././././././././././.>.>.>.>.>.>.:.v.v.v.v.v.v.v.v.v.v.v.v.Q /././././././././././././././.",
"/././././././././././././././.>.>.>.>.>.>.>.,.v.v.v.v.v.v.v.v.v.v.V././././././././././././././././.",
"/././././././././././././././././.>.>.>.>.>.>.;.z.v.v.v.v.v.v.v.t /././././././././././././././././.",
"/././././././././././././././././././.>.>.>.>.>.>.>.>.n.n.D.q t /./././././././././././././././././.",
"/./././././././././././././././././././.o.$.>.>.>.>.>.$.a /././././././././././././././././././././.",
"/././././././././././././././././././././././.r r r /./././././././././././././././././././././././.",
"/./././././././././././././././././././././././././././././././././././././././././././././././././.",
"/./././././././././././././././././././././././././././././././././././././././././././././././././.",
"/./././././././././././././././././././././././././././././././././././././././././././././././././.",
"/./././././././././././././././././././././././././././././././././././././././././././././././././.",
"/./././././././././././././././././././././././././././././././././././././././././././././././././.",
"/./././././././././././././././././././././././././././././././././././././././././././././././././.",
"/./././././././././././././././././././././././././././././././././././././././././././././././././.",
"/./././././././././././././././././././././././././././././././././././././././././././././././././.",
"/./././././././././././././././././././././././././././././././././././././././././././././././././.",
"/./././././././././././././././././././././././././././././././././././././././././././././././././.",
"/./././././././././././././././././././././././././././././././././././././././././././././././././.",
"/./././././././././././././././././././././././././././././././././././././././././././././././././."
};
