/* XPM */
static char *result[] = {
/* columns rows colors chars-per-pixel */
"50 50 173 2 ",
"   c #371F20",
".  c #391F21",
"X  c #3A1F21",
"o  c #381F22",
"O  c #342123",
"+  c #576069",
"@  c #E43539",
"#  c #894737",
"$  c #8A4737",
"%  c #8B483A",
"&  c #B64625",
"*  c #BF4821",
"=  c #C24626",
"-  c #C44625",
";  c #C94326",
":  c #C14728",
">  c #CD612E",
",  c #DB7331",
"<  c #DD7632",
"1  c #DE7337",
"2  c #DF7437",
"3  c #DF7438",
"4  c #DD753D",
"5  c #E27335",
"6  c #E27236",
"7  c #E27237",
"8  c #E5713D",
"9  c #A26849",
"0  c #B36945",
"q  c #B56D49",
"w  c #BF6F4A",
"e  c #BF6F4C",
"r  c #BF7047",
"t  c #B87448",
"y  c #FB535B",
"u  c #C26E4A",
"i  c #C26D4F",
"p  c #D56B45",
"a  c #2F9A48",
"s  c #359748",
"d  c #32984B",
"f  c #32994E",
"g  c #5DC445",
"h  c #5AC64D",
"j  c #60C462",
"k  c #FFA214",
"l  c #FFA215",
"z  c #F8A614",
"x  c #FDA414",
"c  c #FCA01B",
"v  c #FFC820",
"b  c #AD8577",
"n  c #B48D7A",
"m  c #B48D7B",
"M  c #E7AD52",
"N  c #ECAB50",
"B  c #DF9F6A",
"V  c #E79A63",
"C  c #E59A64",
"Z  c #E39D67",
"A  c #E49D66",
"S  c #E59D66",
"D  c #E59C67",
"F  c #E39B68",
"G  c #E69B6A",
"H  c #E59C68",
"J  c #E49C69",
"K  c #E59E68",
"L  c #E49E69",
"P  c #E49C6B",
"I  c #E69C6B",
"U  c #E39B6E",
"Y  c #E59B6C",
"T  c #E19D6F",
"R  c #EA9968",
"E  c #E89C68",
"W  c #FAED58",
"Q  c #A19798",
"!  c #A19898",
"~  c #9B9EA4",
"^  c #A4A3A1",
"/  c #ABABAF",
"(  c #B5A8A3",
")  c #B7B2AD",
"_  c #A8ACB2",
"`  c gray72",
"'  c #B9BCBF",
"]  c #F78187",
"[  c #F6818C",
"{  c #EDB381",
"}  c #FDC79F",
"|  c #F4CB9B",
" . c #F7CA9A",
".. c #F3CB9D",
"X. c #F2CB9F",
"o. c #F3CB9F",
"O. c #F5CA9D",
"+. c #F6CA9C",
"@. c #F6CA9D",
"#. c #F7CA9D",
"$. c #F7C99E",
"%. c #F7C99F",
"&. c #F5CA9E",
"*. c #F5CB9E",
"=. c #F5CA9F",
"-. c #F4CB9F",
";. c #F6CA9E",
":. c #F7CA9E",
">. c #F7CB9E",
",. c #F6CA9F",
"<. c #F3CC9C",
"1. c #F9C99B",
"2. c #FAC89A",
"3. c #FAC99C",
"4. c #F8CA9D",
"5. c #F8C89E",
"6. c #D6FF89",
"7. c #F1C9A3",
"8. c #F3CAA2",
"9. c #F6C9A1",
"0. c #F4CAA0",
"q. c #F0C9A7",
"w. c #F0CCA5",
"e. c #FEC3A8",
"r. c #F7DAB6",
"t. c #B9BDC1",
"y. c #BFC2C5",
"u. c #FBE6C7",
"i. c #F7E7CD",
"p. c #F7E7CE",
"a. c #F8E2C9",
"s. c #FAE5C8",
"d. c #F9E6CB",
"f. c #FBE5CC",
"g. c #FBE5CD",
"h. c #F8E6CC",
"j. c #F9E6CD",
"k. c #F8E7CD",
"l. c #FAE6CC",
"z. c #FAE6CD",
"x. c #F8E6CE",
"c. c #F9E6CE",
"v. c #F8E6CF",
"b. c #FBE7CF",
"n. c #FDE4CE",
"m. c #F7E8C9",
"M. c #F4E9CE",
"N. c #F7E8CF",
"B. c #FBE8CD",
"V. c #F6E7D0",
"C. c #F8E6D0",
"Z. c #F9E6D0",
"A. c #F9E7D0",
"S. c #FCE4D0",
"D. c #FCE4D1",
"F. c #F3E8D2",
"G. c #FFF0DA",
"H. c #FFD1EF",
"J. c #FCFFF6",
"K. c #FFFFFB",
"L. c #FAFFFC",
"P. c #FFFEFC",
"I. c #FFFFFC",
"U. c #FFFFFD",
"Y. c #FFFDFF",
"T. c #FCFFFF",
"R. c #FDFFFF",
"E. c #FEFFFE",
"W. c #FFFFFE",
"Q. c #FFFEFF",
"!. c #FEFFFF",
"~. c white",
"^. c None",
/* pixels */
"^.^.^.^.^.^.^.^.^.^.^.^.^.^.^.^.^.^.^.^.^.^.^.^.^.^.^.^.^.^.^.^.^.^.^.^.^.^.^.^.^.^.^.^.^.^.^.^.^.^.",
"^.^.^.^.^.^.^.^.^.^.^.^.^.^.^.^.^.^.^.^.^.^.^.^.^.^.^.^.^.^.^.^.^.^.^.^.^.^.^.^.^.^.^.^.^.^.^.^.^.^.",
"^.^.^.^.^.^.^.^.^.^.^.^.^.^.^.^.^.^.^.^.^.^.^.^.^.^.^.^.^.^.^.^.^.^.^.^.^.^.^.^.^.^.^.^.^.^.^.^.^.^.",
"^.^.^.^.^.^.^.^.^.^.^.^.^.^.^.^.^.^.^.^.^.^.^.^.^.^.^.^.^.^.^.^.^.^.^.^.^.^.^.^.^.^.^.^.^.^.^.^.^.^.",
"^.^.^.^.^.^.^.^.^.^.^.^.^.^.^.^.^.^.^.^.^.^.^.^.^.^.^.^.^.^.^.^.^.^.^.^.^.^.^.^.^.^.^.^.^.^.^.^.^.^.",
"^.^.^.^.^.^.^.^.^.^.^.^.^.^.^.^.^.^.^.^.^.^.^.^.^.^.^.^.^.^.^.^.^.^.^.^.^.^.^.^.^.^.^.^.^.^.^.^.^.^.",
"^.^.^.^.^.^.^.^.^.^.^.^.^.^.^.^.^.^.^.^.^.^.^.^.^.^.^.^.^.^.^.^.^.^.^.^.^.^.^.^.^.^.^.^.^.^.^.^.^.^.",
"^.^.^.^.^.^.^.^.^.^.^.^.^.^.^.^.^.^.^.^.^.^.^.^.^.^.^.^.^.^.^.^.^.^.^.^.^.^.^.^.^.^.^.^.^.^.^.^.^.^.",
"^.^.^.^.^.^.^.^.^.^.^.^.^.^.^.^.^.^.^.^.^.^.^.^.^.^.^.^.^.^.^.^.^.^.^.^.^.^.^.^.^.^.^.^.^.^.^.^.^.^.",
"^.^.^.^.^.^.^.^.^.^.^.^.^.^.^.^.^.^.^.^.^.^.^.^.^.^.^.^.^.^.^.^.^.^.^.^.^.^.^.^.^.^.^.^.^.^.^.^.^.^.",
"^.^.^.^.^.^.^.^.^.^.^.^.^.^.^.^.^.^.^.^.^.^.^.^.^.^.^.^.^.^.^.^.^.^.^.^.^.^.^.^.^.^.^.^.^.^.^.^.^.^.",
"^.^.^.^.^.^.^.^.^.^.^.^.^.^.^.^.^.^.^.^.^.^.^.^.^.^.^.^.^.^.^.^.^.^.^.^.^.^.^.^.^.^.^.^.^.^.^.^.^.^.",
"^.^.^.^.^.^.^.^.^.^.^.^.^.^.^.^.^.^.^.^.^.^.^.^.^.^.^.^.^.^.^.^.^.^.^.^.^.^.^.^.^.^.^.^.^.^.^.^.^.^.",
"^.^.^.^.^.^.^.^.^.^.^.^.^.^.^.^.^.^.^.^.^.^.^.^.^.^.^.^.^.^.^.^.^.^.^.^.^.^.^.^.^.^.^.^.^.^.^.^.^.^.",
"^.^.^.^.^.^.^.^.^.^.^.^.^.^.^.^.^.^.^.^.^.^.^.^.^.^.^.^.^.^.^.^.^.^.^.^.^.^.^.^.^.^.^.^.^.^.^.^.^.^.",
"^.^.^.^.^.^.^.^.^.^.^.^.^.^.^.^.^.o ^.^.^.^.^.^.^.^.^.^.^.^.^.^.^.^.^.^.^.^.^.^.^.^.^.^.^.^.^.^.^.^.",
"^.^.^.^.^.^.^.^.^.^.^.^.^.^.^.^.+ . ^.^.^.^.^.^.^.^.^.^.^.^.^.^.^.^.^.^.^.^.^.^.^.^.^.^.^.^.^.^.^.^.",
"^.^.^.^.^.^.^.^.^.^.^.^.^.^.^.^.^.^.^.^.^.^.^.^.^.^.^.^.^.^.^.^.^.^.^.^.^.^.^.^.^.^.^.^.^.^.^.^.^.^.",
"^.^.^.^.^.^.^.^.^.^.^.^.^.^.^.^.^.^.^.^.^.^.^.^.^.^.^.^.^.^.^.^.^.^.^.^.^.^.^.^.^.^.^.^.^.^.^.^.^.^.",
"^.^.^.^.^.^.^.^.^.^.^.^.^.^.^.^.^.^.^.^.^.^.^.^.^.^.^.^.^.^.^.^.^.^.^.^.^.^.^.^.^.^.^.^.^.^.^.^.^.^.",
"^.^.^.^.^.^.^.^.^.^.^.^.^.^.^.^.^.^.  ^.!.^.y.W.W.t.W.U.' _ ;.^.^.^.^.^.^.^.^.^.^.^.^.^.^.^.^.^.^.^.",
"^.^.^.^.^.^.^.^.^.^.^.^.^.^.^.^.^.x.x.X f.x.~ x.x.x.i.) _ @.=.Q.Q.$.^.^.^.^.^.^.^.^.^.^.^.^.^.^.^.^.",
"^.^.^.^.^.^.^.^.^.^.^.^.^.^.F.z.x.c.c.B.O b ^ N 2 ; d.S ! >.0 =.=.8.R.^.^.^.^.^.^.^.^.^.^.^.^.^.^.^.",
"^.^.^.^.^.^.^.^.^.^.^.^.^.l.x.a 6 U.~.L.= > n , 8 ` t A./ $ G.h.k.0.u :.;.^.^.^.^.^.^.^.^.^.^.^.^.^.",
"^.^.^.^.^.^.^.^.^.^.^.^.^.D.6.f d J.v k P.V m u.v.g.% ( Q H P w I K # =.4.^.^.^.^.^.^.^.^.^.^.^.^.^.",
"^.^.^.^.^.^.^.^.^.^.^.^.^.h g s =.W.W.%.R.a.7 s.j.+.Z.b.U D w J F 5.3.: 4.^.^.^.^.^.^.^.^.^.^.^.^.^.",
"^.^.^.^.^.^.^.^.^.^.^.^.^.e.j T ~.W z ~.I.x.3 4 5 E <.Z I - m.B =.l.* I.A ^.^.^.^.^.^.^.^.^.^.^.^.^.",
"^.^.^.^.^.^.^.^.^.^.^.^.q | 7...l k x c ~.{ M V.y ] n.1 & L M.p.C =.K.x.^.^.^.^.^.^.^.^.^.^.^.^.^.^.",
"^.^.^.^.^.^.^.^.^.^.^.^.^.=.1.2.T.X.X.q.x.p < @ H.~.[ Y G #.O. .Y.x.x.x.^.^.^.^.^.^.^.^.^.^.^.^.^.^.",
"^.^.^.^.^.^.^.^.^.^.^.^.^.=.=.=.=.9.,.w.E.E.E.E.E.E.E.E.E.c.c.v.x.x.x.C.^.^.^.^.^.^.^.^.^.^.^.^.^.^.",
"^.^.^.^.^.^.^.^.^.^.^.^.^.^.=.=.=.=.=.=.=.x.x.x.x.x.x.x.x.x.x.x.x.x.x.A ^.^.^.^.^.^.^.^.^.^.^.^.^.^.",
"^.^.^.^.^.^.^.^.^.^.^.^.^.^.=.=.=.=.=.=.=.r.x.x.x.x.x.x.x.x.x.x.x.x.x.^.^.^.^.^.^.^.^.^.^.^.^.^.^.^.",
"^.^.^.^.^.^.^.^.^.^.^.^.^.^.^.=.=.=.=.=.=.*.x.x.x.x.x.x.x.x.x.x.x.x.R ^.^.^.^.^.^.^.^.^.^.^.^.^.^.^.",
"^.^.^.^.^.^.^.^.^.^.^.^.^.^.^.=.=.=.=.=.=.=.;.x.x.x.x.x.x.x.x.x.x.N.^.^.^.^.^.^.^.^.^.^.^.^.^.^.^.^.",
"^.^.^.^.^.^.^.^.^.^.^.^.^.^.^.^.=.=.=.=.=.=.=.&.k.x.x.x.x.x.x.x.r ^.^.^.^.^.^.^.^.^.^.^.^.^.^.^.^.^.",
"^.^.^.^.^.^.^.^.^.^.^.^.^.^.^.^.^.^.-.=.=.=.=.=.=.=.=.v.v.S.9 r ^.^.^.^.^.^.^.^.^.^.^.^.^.^.^.^.^.^.",
"^.^.^.^.^.^.^.^.^.^.^.^.^.^.^.^.^.^.^.i } o.=.=.=.=.=.o.i ^.^.^.^.^.^.^.^.^.^.^.^.^.^.^.^.^.^.^.^.^.",
"^.^.^.^.^.^.^.^.^.^.^.^.^.^.^.^.^.^.^.^.^.^.w w w w e ^.^.^.^.^.^.^.^.^.^.^.^.^.^.^.^.^.^.^.^.^.^.^.",
"^.^.^.^.^.^.^.^.^.^.^.^.^.^.^.^.^.^.^.^.^.^.^.^.^.^.^.^.^.^.^.^.^.^.^.^.^.^.^.^.^.^.^.^.^.^.^.^.^.^.",
"^.^.^.^.^.^.^.^.^.^.^.^.^.^.^.^.^.^.^.^.^.^.^.^.^.^.^.^.^.^.^.^.^.^.^.^.^.^.^.^.^.^.^.^.^.^.^.^.^.^.",
"^.^.^.^.^.^.^.^.^.^.^.^.^.^.^.^.^.^.^.^.^.^.^.^.^.^.^.^.^.^.^.^.^.^.^.^.^.^.^.^.^.^.^.^.^.^.^.^.^.^.",
"^.^.^.^.^.^.^.^.^.^.^.^.^.^.^.^.^.^.^.^.^.^.^.^.^.^.^.^.^.^.^.^.^.^.^.^.^.^.^.^.^.^.^.^.^.^.^.^.^.^.",
"^.^.^.^.^.^.^.^.^.^.^.^.^.^.^.^.^.^.^.^.^.^.^.^.^.^.^.^.^.^.^.^.^.^.^.^.^.^.^.^.^.^.^.^.^.^.^.^.^.^.",
"^.^.^.^.^.^.^.^.^.^.^.^.^.^.^.^.^.^.^.^.^.^.^.^.^.^.^.^.^.^.^.^.^.^.^.^.^.^.^.^.^.^.^.^.^.^.^.^.^.^.",
"^.^.^.^.^.^.^.^.^.^.^.^.^.^.^.^.^.^.^.^.^.^.^.^.^.^.^.^.^.^.^.^.^.^.^.^.^.^.^.^.^.^.^.^.^.^.^.^.^.^.",
"^.^.^.^.^.^.^.^.^.^.^.^.^.^.^.^.^.^.^.^.^.^.^.^.^.^.^.^.^.^.^.^.^.^.^.^.^.^.^.^.^.^.^.^.^.^.^.^.^.^.",
"^.^.^.^.^.^.^.^.^.^.^.^.^.^.^.^.^.^.^.^.^.^.^.^.^.^.^.^.^.^.^.^.^.^.^.^.^.^.^.^.^.^.^.^.^.^.^.^.^.^.",
"^.^.^.^.^.^.^.^.^.^.^.^.^.^.^.^.^.^.^.^.^.^.^.^.^.^.^.^.^.^.^.^.^.^.^.^.^.^.^.^.^.^.^.^.^.^.^.^.^.^.",
"^.^.^.^.^.^.^.^.^.^.^.^.^.^.^.^.^.^.^.^.^.^.^.^.^.^.^.^.^.^.^.^.^.^.^.^.^.^.^.^.^.^.^.^.^.^.^.^.^.^.",
"^.^.^.^.^.^.^.^.^.^.^.^.^.^.^.^.^.^.^.^.^.^.^.^.^.^.^.^.^.^.^.^.^.^.^.^.^.^.^.^.^.^.^.^.^.^.^.^.^.^."
};
