/* XPM */
static char *result[] = {
/* columns rows colors chars-per-pixel */
"50 50 11 1 ",
"  c #755132",
". c #7D5736",
"X c #875E3A",
"o c #91643F",
"O c #9E6D44",
"+ c #C28553",
"@ c #B2A282",
"# c #B5A381",
"$ c #E3C691",
"% c #EAD4AA",
"& c None",
/* pixels */
"&&&&&&&&&&&&&&&&&&&&&&&&&&&&&&&&&&&&&&&&&&&&&&&&&&",
"&&&&&&&&&&&&&&&&&&&&&&&&&&&&&&&&&&&&&&&&&&&&&&&&&&",
"&&&&&&&&&&&&&&&&$$$$$$$$$$$$$$$$$&&&&&&&&&&&&&&&&&",
"&&&&&&&&&&&&&&$$$%%%%%%%%%%%%%%%$$$$$&&&&&&&&&&&&&",
"&&&&&&&&&&&##$$%%@@@@@@@@@@@@@@@@@%%$$$&&&&&&&&&&&",
"&&&&&&&&&###%%%@@@%%%%@@@@@@%%%%%%@@%%%$$$&&&&&&&&",
"&&&&&&&####@@%%@%%%@@@@%%%%%@@@%%%%@@%%%@$$$&&&&&&",
"&&&&&######@%%%@%%%@%%%%@@@%%%@%%%%%@@%%@%%$$$&&&&",
"&&&&&######@%%%@%%%@%%%%@@@%%%@%%%%%%@%%%@%%%$&&&&",
"&&&& ######@%%%@@%%@@@@@@@%%%@@%%%%%%@%%%@%%%$&&&&",
"&&&&   ####@%%%%@@%%%%%%%%%@@@%%%%%%@@%%@@%%%$&&&&",
"&&&&    ..###%%%%%@@@@@@@@@%%%%%%%%@@%%%@%$$$o&&&&",
"&&&&    ..XXo$$$$%%%%%%%%%%%%%%%@@@@%%%$@$$ooo&&&&",
"&&&&    ..XXXooo$$$$$%%%%%@@@@@@%$$$$$$$oooooo&&&&",
"&&&&    ...XXOooooooo$$$$$$$$$$$$$oooOoooooooo&&&&",
"&&&&     ..XXOOooooooooooooooooooooooOoooooooo&&&&",
"&&&&    ...XXXOooooooooooOOoooooooooOooooooooo&&&&",
"&&&&     ..XXXOooooooooooOooooooooooOooooooooo&&&&",
"&&&&     ..XXOOooooooooooOooooooooooOooooooooo&&&&",
"&&&&     .XXXOoooooooooooOooooooooooOooooooooo&&&&",
"&&&&     ..XXOoooooooooooOooooooooooOooooooooo&&&&",
"&&&&     ..XXOoooooooo++++ooooo++ooooOoooooooo&&&&",
"&&&&     ..XXOoooooo+++oo+++oo+ooooooOoooooooo&&&&",
"&&&&     ..XXOooooo++oooooO+++oooooooOoooooooo&&&&",
"&&&&     ..XXOoooo+ooo++++OooooooooooOoooooooo&&&&",
"&&&&     ..XXOoooo+o+++oo++ooooooooooOoooooooo&&&&",
"&&&&     ..XXOooo++o+ooooo+ooooooooooOoooooooo&&&&",
"&&&&     ..XXOooo+oo+oo+oo+ooooooooooOoooooooo&&&&",
"&&&&     ..XXOoo++oo+ooo+oO+ooooooooOOoooooooo&&&&",
"&&&&     ..XXOoo++oo++o++oO+ooooooooOooooooooo&&&&",
"&&&&   . ..XXOo+o++oo+++oo++ooooooooOooooooooo&&&&",
"&&&&   . ..XXO+ooo+ooooooO+oooooooooOooooooooo&&&&",
"&&&&    ...XXO+ooo+oooooo++oooooooooOooooooooo&&&&",
"&&&&    ...XX+++++++++++++ooooooooooOooooooooo&&&&",
"&&&&    ..XXXOoooooooooooOoooooooooooOoooooooo&&&&",
"&&&&    ..XXXOoooooooooooOoooooooooooOoooooooo&&&&",
"&&&&    ..XXXOoooooooooooOoooooooooooOoooooooo&&&&",
"&&&&     ..XXOooooooooooooOooooooooooOoooooooo&&&&",
"&&&&     ..XXOooooooooooooOooooooooooOoooooooo&&&&",
"&&&&     ..XXOooooooooooooOooooooooooOoooooooo&&&&",
"&&&&     ...XOooooooooooooOooooooooooOoooooooo&&&&",
"&&&&     ...XOooooooooooooOooooooooooOoooooooo&&&&",
"&&&&     ...XOOoooooooooooOooooooooooOoooooooo&&&&",
"&&&&&    ...XXOoooooooooooOooooooooooOoooooooo&&&&",
"&&&&&&   ....XOoooooooooooOooooooooooOooooo&&&&&&&",
"&&&&&&&  ....XOoooooooooooOooooooooooOooo&&&&&&&&&",
"&&&&&&&&&&...oOoooooooooooOooooooooooO&&&&&&&&&&&&",
"&&&&&&&&&&&&&&OoooooooooooOooooooo&&&&&&&&&&&&&&&&",
"&&&&&&&&&&&&&&&&ooooooooooOooooo&&&&&&&&&&&&&&&&&&",
"&&&&&&&&&&&&&&&&&&&&&&&&&&&&&&&&&&&&&&&&&&&&&&&&&&"
};
