/* XPM */
static char *result[] = {
/* columns rows colors chars-per-pixel */
"50 50 32 1 ",
"  c #191410",
". c #2F1E1C",
"X c #2E3028",
"o c #472E2A",
"O c #4C2D29",
"+ c #40302C",
"@ c #623F3A",
"# c #683D38",
"$ c #424728",
"% c #43472C",
"& c #4D4F3A",
"* c #5D403B",
"= c #4D4441",
"- c #4D4F40",
"; c #4D4F42",
": c #595B40",
"> c #595B43",
", c #595B45",
"< c #545648",
"1 c #5B504B",
"2 c #595B49",
"3 c #595B4B",
"4 c #595B4D",
"5 c #7D5049",
"6 c #5F6145",
"7 c #5F6148",
"8 c #5F614D",
"9 c #5F6151",
"0 c #676957",
"q c #854E47",
"w c #8F534B",
"e c #985850",
/* pixels */
"e**++++....qq#$7:6666eeeeeeqq@@oooo@@@@5@555@@@ooo",
"ee****++...qq#$$::66:eeeeeeeqq@@ooo@555eeee555@@oo",
"eeeee**+++.eq##$7:::eeeeeeeeeqq@oo@5eeeeeeeee55@@o",
"eeeeee***+.eqq#$$::eeeeeeeeeeeqqqo@eeeeeeeeeee55@@",
"eeeeeeee*+.eeqqeeeeeeeeeeeeeeeeqq.eeeeeeeeeeeee55@",
"eeeeeeee**.eeeeeeeeeeeeeeeeeeeeeq.eeeeeeeeeeeeee55",
"eeeeeee**+.eeeeeeeeeeeeeeeeeeeeee.eeeeeeeeeeeeeee5",
"eeeeee**++.eeeeeeeeeeeeeeeeeeeeee.eeeeeeeeeeeeeeee",
"eeeee**+++..eeeeeeeeeeeeeeeeeeeeeoeeeeeeeeeeeeeeee",
"eeee**++++  .eeeeeeeeeeeeeeeeeeeooeeeeee77eeeeeeee",
"eee**+++..  ..eeeeeeeeeeeeeeeeeeoooee77777777eeeee",
"....300..  ..%%%47777777744..ooooooo77>>>77777....",
"55@o;300=ooooo%%44477777745555@ooooo@@%%>>>>77eeee",
"55@oo;3ooo5@@oo%%%447777455ee55@@@o55@@*%%>>>7eeee",
"55@@ooooee55@@ooo%%4477455eeeee55@@555@@%%%%>>eeee",
"e55@@o55eee55@@ooo%%44455eeeeeeeeeeee55@*%%%%%eeee",
"ee55555eeeee55@@ooo%%455eeeeeeeeeeeeee55@@%%eeeeee",
"eeee555eeeeee55@@ooo%%5eeeeeeeeeeeeeeee55@%eeeeeee",
"eeeeeeeeeeeeee55@@ooo%eeeeeeeeeeeeeeeeee5@.eeeeeee",
"ee555@@@@@55eee55@@oo.eeeeeeeeeeeeeeeeee@@.eeeeeee",
"555@@@oooo75555555@@@.eeeeeeeeeeeeeeeee5@@.eeeeeee",
"5@@oooo>>777755555@@@.eeeeeeeeeeeeeeee5@@@.eeeeeee",
"@ooo%%>>>>7077755@@@@.eeeeeeeeee33eee5@@@@.eeeeeee",
"ooX%%%%%%>777777...........;<3;;333377............",
"ooXXXX%%%>>777eeeeeee555@@++<<3;33377@5eee55***+++",
"*oooXXXX%%>%7eeeeeeeee555@@+;;ooo;9@@@5eeee555**++",
"***oooooo%%%7eeeeeeeeeee55@++;ooo;@@@@5eeeeee55**+",
"****oooooo%eeeeeeeeeeeeee5@@@ooooo@@555eeeeeee55**",
"*wwwwwwooo.eeeeeeeeeeeeee555@@@ooo@@5eeeeeeeeee55*",
"*wwwwwwww*.eeeeeeeeeeeeeeee5@@@@oo@55eeeeeeeeeee55",
"wwwwwww***.eeeeeeeeeeeeeeee5555@@o55eeeeeeeeeeeeee",
"wwwwwww**o.eeeeeeeeeeeeeeeeee555@o5eeeeeeeeeeeeeee",
"wwwww***oo.eeeeeeeeeeeeeeeee555@@.eeeeeeeeeeeeeeee",
"ww*****ooo.eeeeeeeeeeeeeeee555@@@.eeeeeeeeeeeeeeee",
"****ooooo..eeeeeeeeeeeeeee555@@@@.eeeeeeeeeeeeeeee",
"ooooooo....eeeeeeeeeeeeee555@@@@@.eeeeeeeeeeeeee,e",
"...............................................,,,",
"eeeeeeeeeeeeeqq##OOOO.eeeeeeeeeeeeeqqq#OOO.e@@ooo,",
"eeeeeeeeeeeeeeqq##OOO.eeeeeeeeeeeeeeqq##OO.ee@@ooo",
"eeeeeeeeeeeeeeeqq##OO.eeeeeeeeeeeeeeeqq##O.eee@@oo",
"eeeeeeeeeeeeeeeeqq##O7eeeeeeeeeeeeeeeeqq##.e7e@@@o",
"ee77eeeee77eeeeeeq#7777ee77ee77ee77e7eeqqq77777771",
"777777777777ee7e777777777777777e777777e77772277228",
">>>>>>77>>>77777777>>>>77>>77>777>>>>7777722222222",
">>>&&>>>>>>>>77>>>>>>>>>>>>>>>>77>>>>>>&&2222222--",
"&&&&&>&&>>>>>>7>>&&>>>>>>>>>>>>>>>>>&&&&&&&&22----",
"&%&&&&&&&>&&&&&&&&&&&>>&&&>>&&&&&&&&&%%&&%%&&&%%-%",
"%%%%%%%%&&&%&&%%&&&%&&&&%&&&&&%%&&&&%%%&&%%%&&%%%%",
"%%%%%%%%%%%%&%%%%&%%%&&%%%&%%%%%%%%%%%%%%%%%%%%%%%",
"%%%%%%%%%%%%%%%%%%%%%%%%%%%%%%%%%%%%%%%%%%%%%%%%%%"
};
