/* XPM */
static char *result[] = {
/* columns rows colors chars-per-pixel */
"50 50 11 1 ",
"  c #69492D",
". c #704E30",
"X c #755132",
"o c #825B38",
"O c #8A603B",
"+ c #91643F",
"@ c #C1A36D",
"# c #D6BA86",
"$ c #E3C691",
"% c #EAD4AA",
"& c None",
/* pixels */
"&&&&&&&&&&&&&&&&&&&&&&&&&&&&&&&&&&&&&&&&&&&&&&&&&&",
"&&&&&&&&&&&&&&&&&&&&&&&&&&&&&&&&&&&&&&&&&&&&&&&&&&",
"&&&&&&&&&&&&&&&&$$$$$$$$$$$$$$$$$&&&&&&&&&&&&&&&&&",
"&&&&&&&&&&&&&&$$$@@@@@@@@@@@@@@@$$$$$&&&&&&&&&&&&&",
"&&&&&&&&&&&##$$@@#################@@$$$&&&&&&&&&&&",
"&&&&&&&&&###@@@###@@@@######@@@@@@##@@@$$$&&&&&&&&",
"&&&&&&&###@@@@@#@@@####@@@@@###@@@@##@@@#$$$&&&&&&",
"&&&&&###@@@@@@@#@@@#@@@@###@@@#@@@@@##@@#@@$$$&&&&",
"&&&&&##@@@@@@@@#@@@#@@@@###@@@#@@@@@@#@@@#@@@$&&&&",
"&&&& ##@@@@@@@@##@@#######@@@##@@@@@@#@@@#@@@$&&&&",
"&&&&   ####@@@@@##@@@@@@@@@###@@@@@@##@@##@@@$&&&&",
"&&&&   ...###@@@@@#########@@@@@@@@##@@@#@$$$O&&&&",
"&&&&   ...XX+$$$$@@@@@@@@@@@@@@@####@@@$#$$OOO&&&&",
"&&&&    ...XXXXX$$$$$@@@@@#######$$$$$$$ooOOOO&&&&",
"&&&&    ...XX XXXXXXX$$$$$$$$$$$$$ooo ooooOOOO&&&&",
"&&&&    ...XX  XXXXXXXXXXXXXXXXXXoooo oooooOOO&&&&",
"&&&&    ...XXX XXXXXXXXXX  XXXXXXooo ooooooOOO&&&&",
"&&&&    ...XXX XXXXXXXXXX XXXXXXXooo ooooOoOOO&&&&",
"&&&&    ...XX  XXXXXXXXXX XXXXXXXooo ooooOoOOO&&&&",
"&&&&    ...XXXX XXXXXXXXXX XXXXXXXoo ooooOoOOO&&&&",
"&&&&    ...XXXX XXXXXXXXXXX XXXXXXoooooooooOOO&&&&",
"&&&&    ...XXXX XXXXXXXXXXX XXXXXXooo oooooOOO&&&&",
"&&&&    ...XXXX XXXXXXXX%%%%XXXXX%%oo ooooOoOO&&&&",
"&&&&    ...XXXX XXXXXX%%%XX%%%XX%%Xoo ooooOOOO&&&&",
"&&&&    ...XXXX XXXXX%%XXXXXX%%%XXooo ooOoOOOO&&&&",
"&&&&    ...XXXX XXXX%XXX%%%%XXXXXXooo ooooOOOO&&&&",
"&&&&    ...XXXX XXXX%X%%%XX%%XXXXoXoo ooooOOOO&&&&",
"&&&&     ..XXXX XXX%%X%XXXXX%XXXXoXoo ooooOOOO&&&&",
"&&&&     ..XXXX XXX%XX%XX%XX%XXXXoXoo ooooOOOO&&&&",
"&&&&     ..XXXX XX%%XX%XXX%XX%XXXoooo ooOoOoOO&&&&",
"&&&&     ...XXX XX%%XX%%X%%XX%XXXoooo ooOoOoOO&&&&",
"&&&&     ...XXX X%X%%XX%%%XX%%XXXoooo ooooOOOO&&&&",
"&&&&     ...XXX %XXX%XXXXXX %XXXXoooo ooooOOOO&&&&",
"&&&&    ....XXX %XXX%XXXXXX%%XXXXooXo oOooOOOO&&&&",
"&&&&    ....XXX%%%%%%%%%%%%%XXXXXoooo ooooOOOO&&&&",
"&&&&    ...XXXX XXXXXXXXXXX XXXXXoooo ooooOoOO&&&&",
"&&&&    ...XXXX XXXXXXXXXXX XXXXXXXoo oOOoOoOO&&&&",
"&&&&    ...XXXX XXXXXXXXXXX XXXXXXooo ooOoOoOO&&&&",
"&&&&    ...XX XXXXXXXXXXXX XXXXXXoooo ooOoOOOO&&&&",
"&&&&    ....X XXXXXXXXXXXX XXXXXXoooo ooOoOOOO&&&&",
"&&&&    ....X XXXXXXXXXXXX XXXXXXoooo ooOoOOOO&&&&",
"&&&&    ...XX XXXXXXXXXXXX XXXXXXoooo ooooOOOO&&&&",
"&&&&    ...XX  XXXXXXXXXXX XXXXXXoooo oooooOOO&&&&",
"&&&&&   ...XXX XXXXXXXXXXX XXXXXXoooo oooooOOO&&&&",
"&&&&&&   ..XXX XXXXXXXXXXX XXXXXXXooo ooooo&&&&&&&",
"&&&&&&&  ...XX XXXXXXXXXXX XXXXXXXooo ooo&&&&&&&&&",
"&&&&&&&&&&XXX+ XXXXXXXXXXX XXXXXXXooo &&&&&&&&&&&&",
"&&&&&&&&&&&&&& XXXXXXXXXXX XXXXXXX&&&&&&&&&&&&&&&&",
"&&&&&&&&&&&&&&&&XXXXXXXXXX XXXXX&&&&&&&&&&&&&&&&&&",
"&&&&&&&&&&&&&&&&&&&&&&&&&&&&&&&&&&&&&&&&&&&&&&&&&&"
};
