/* XPM */
static char *result[] = {
/* columns rows colors chars-per-pixel */
"50 50 16 1 ",
"  c black",
". c #111638",
"X c #171D4B",
"o c gray47",
"O c #C94F22",
"+ c #E05320",
"@ c #FF5C26",
"# c #B08122",
"$ c #CFC914",
"% c #E0D916",
"& c #F0A072",
"* c #28AEE4",
"= c #959595",
"- c #D0D0D0",
"; c white",
": c None",
/* pixels */
":::::::::::::::::::  :::::::::::::::::::::::::::::",
":::::::::::::::::::     ::::::::::::::::::::::::::",
":::::::::::    ::::::      :::::::::::::::::::::::",
"::::::::::       :::::::   :::::::::::::::::::::::",
":::::::::::::     :::::::    :::::::::::::::::::::",
"::::::::::::::::   ::::###:   ::::::::::::::::::::",
":::::::::::::::::   ###$$$####::::::::::::::::::::",
"::::::::::::::::::: #$$$$$$$##::::::::::::::::::::",
":::::::::::::::::::##$$%%$%$#$###:::::::::::::::::",
":::::::::::::::::::#$$%$%%%##$%##:::::::::::::::::",
"::::::::::::::::::#$#$%%%%$#%$$%##::::::::::::::::",
"::::::::::::::::::#$$#%%%%%%%%%%##::::::::::::::::",
"::::::::::::::::::#$$#%%=---=XXX#:::::::::::::::::",
"::::::::::::::::::##X=%X=---===X#:::::::::::::::::",
":::::::::::::::::::#XXXXXXXXXXXX#:::::::::::::::::",
"::::::::::::::::::::%&&&&&&&&&&%%:::::::::::::::::",
"::::::::::::::::::::%&&; &&& ;&% :::::::::::::::::",
":::::::::::::::::::: &&* &&& *&   ::::::::::::::::",
"::::::::::::::::::: = &&&&O&&&& = ::::::::::::::::",
":::::::::::::::::: == &&&&&&&&& == :::::::::::::::",
"::::::::::::::::: ==== &&OOO&& ==== ::::::::::::::",
"::::::::::::::::: ===oo &&&&& @o==== :::::::::::::",
":::::::::::::::  ===oo@@     @@@o=== :::::::::::::",
"::::::::::::::: ===oo@@@@=  @@@@oo=== ::::::::::::",
"::::::::::::::: ==   @@@@= @@@@@@@=== ::::::::::::",
"::::::::::::::  &&   @@+@= +@+@@   && ::::::::::::",
"::::::::::::::  &&   ++@+  +@@@++  && ::::::::::::",
":::::::::::::::      @ +@@ @++@@+ :   ::::::::::::",
":::::::::::::::: ::   +   @@@     ::::::::::::::::",
":::::::::::::::::::  @@@@@   @@@@  :::::::::::::::",
":::::::::::::::::::: @@@@@@@@@@@@@ :::::::::::::::",
":::::::::::::::::::: @@@@@@ @@@@@@ :::::::::::::::",
":::::::::::::::::::: ;;;;; : @@@@@ :::::::::::::::",
"::::::::::::::::::::       : @@@@@ :::::::::::::::",
":::::::::::::::::::: ;;;;; : +@+@+ :::::::::::::::",
":::::::::::::::::::: @++++ : +++++ :::::::::::::::",
":::::::::::::::::::: ++++ ::: +++ ::::::::::::::::",
":::::::::::::::::::: ++++ :::    X :::::::::::::::",
":::::::::::::::::::: ++++ ::: XXXX :::::::::::::::",
"::::::::::::::::::: ++    ::: XXX  :::::::::::::::",
"::::::::::::::::::: + XXX ::: &&  ::::::::::::::::",
":::::::::::::::::::: .... ::::   :::::::::::::::::",
":::::::::::::::::::: XXXX ::::::::::::::::::::::::",
":::::::::::::::::::: ....  :::::::::::::::::::::::",
":::::::::::::::::::: XXXX ::::::::::::::::::::::::",
":::::::::::::::::::: .... ::::::::::::::::::::::::",
"::::::::::::::::::::  XXX ::::::::::::::::::::::::",
":::::::::::::::::::::  X  ::::::::::::::::::::::::",
"::::::::::::::::::::::   :::::::::::::::::::::::::",
"::::::::::::::::::::::::::::::::::::::::::::::::::"
};
