/* XPM */
static char *result[] = {
/* columns rows colors chars-per-pixel */
"50 50 21 1 ",
"  c black",
". c #12173B",
"X c #171D4B",
"o c gray47",
"O c #B8481F",
"+ c #E05320",
"@ c #FF5C26",
"# c #B37556",
"$ c #B08122",
"% c #CFC914",
"& c #E0D916",
"* c #F0EC18",
"= c #D18A64",
"- c #DB9169",
"; c #E3946D",
": c #F0A072",
"> c #259DDD",
", c #959595",
"< c #D0D0D0",
"1 c white",
"2 c None",
/* pixels */
"22222222222222222222222222222222222222222222222222",
"22222222222222222222222222222222222222222222222222",
"22222222222222222222222222222222222222222222222222",
"22222222222222222222222222222222222222222222222222",
"22222222222222222222222222222222222$222$2222222222",
"22222222222222222222222222222222222%%$$$2222222222",
"2222222222222222222222222222222222$%%%%$$$$2222222",
"2222222222     22222222222222222$$$&&&&&$%$2222222",
"2222222222      222222222222222$$%%%&&&&**%$222222",
"22222222222222   22222        22$%&&&******%$22222",
"2222222222222222  22    2222   $%&&********%$22222",
"22222222222222222     222     $%%&*********$$22222",
"222222222222222     222   222 $%$&&**$&&,,<<$22222",
"2222222222222     2     222222  $$&&$X&&,,<<$22222",
"22222222222     222222222222222     XX&XXXXX$22222",
"22222222222  2222222222    222   ##;::::1 : 222222",
"2222222222222222222     ,,,    o%##=;;::1>: 222222",
"222222222222222222  @@@@@@,,,,ooo#====;::::: 22222",
"222222222   2  22           ,,,ooo=====;;;:: 22222",
"22222222  :: ::  ,,,,,,,,,,,,,,,ooo======OO 222222",
"2222222  -::::: ,,,,,ooooooo,,,,oooo    == 2222222",
"2222222  ------  oooo       ooooooo  22   22222222",
"22222222               ++++  oooo  222222222222222",
"222222222222222  @@+    ++++  o  22222222222222222",
"222222222222222  @@@+++   +     222222222222222222",
"22222222222222   @@@@@@+++  2222222222222222222222",
"22222222222222 @@@@@@@@+@+ 22222222222222222222222",
"22222222222222 @@@@@@@@+@++  222222222222222222222",
"222222   22222 @@@@@@@@@++++ 222222222222222222222",
"22222  ..  222 @@@@@@@@+@++++ 22222222222222222222",
"2222 .....  22 1@@@@@@ ++@+@++ 2222222222222222222",
"222 .......+   11@@@@   @++++++ 222222222222222222",
"222 ..... ++++  11@@   @+++++++ 222222222222222222",
"22 ....   +++ 1  1@@ @@@@@@+@++ 222222222222222222",
"22 ... 2  ++  11  1 @@@@@@@++@  222222222222222222",
"22 .# 222 ++ @@11  @@@@@@@@@@@  222222222222222222",
"222  22222  @@@@@ @@@@@@@@@@@  2222222222222222222",
"222222222  @@@@@@             22222222222222222222",
"22222222  @@@@@@ 222222222222222222222222222222222",
"22222222 @@@@@@ 2222222222222222222222222222222222",
"2222222  @@@@@ 22222222222222222222222222222222222",
"222222    @@@ 222222222222222222222222222222222222",
"22222        2222222222222222222222222222222222222",
"22222 XX   222222222222222222222222222222222222222",
"2222  XXXX 222222222222222222222222222222222222222",
"22222  XXXX222222222222222222222222222222222222222",
"222222  XXX  2222222222222222222222222222222222222",
"2222222  XX: 2222222222222222222222222222222222222",
"22222222     2222222222222222222222222222222222222",
"22222222222222222222222222222222222222222222222222"
};
