/* XPM */
static char *result[] = {
/* columns rows colors chars-per-pixel */
"50 50 15 1 ",
"  c black",
". c #111638",
"X c #171D4B",
"o c gray47",
"O c #E05320",
"+ c #FF5C26",
"@ c #FF7D23",
"# c #B08122",
"$ c #CFC914",
"% c #E0D916",
"& c #F0EC18",
"* c #F0A072",
"= c #959595",
"- c white",
"; c None",
/* pixels */
";;;;;;;;;;;;;;;;;;;;;;;;;;;;;;;;;;;;;;;;;;;;;;;;;;",
";;;;;;;;;;;;;;;;;;;;;;;;;;;;;;;;;;;;;;;;;;;;;;;;;;",
";;;;;;;;;;;;;;;;;;;;;;;;;;;;;;;;;;;;;;;   ;;;;;;;;",
";;;;;;;;;;;;;;;;;;;;;;;;;;;;;;;;;;;;;     ;;;;;;;;",
";;;;;;;;;   ;;;;;;;;;;;;;;;;;;;;;;;;     ;;;;;;;;;",
";;;;;;;;;    ;;;;;;;;;;;;##;;;;;;;    ;;;;;;;;;;;;",
";;;;;;;;;     ;;;;;;;;;;####;;;     ;;;;;;;;;;;;;;",
";;;;;;;;;;;;   ;;;;;;;;;#$$#;;; ;;;;;;;;;;;;;;;;;;",
";;;;;;;;;;;;;    ;;;####$$$#### ;;;;;;;;;;;;;;;;;;",
";;;;;;;;;;;;;;    ;##$$$%%$$$$#  ;;;;;;;;;;;;;;;;;",
";;;;;;;;;;;;;;;;    $$$%%%%%%$$# ;;;;;;;;;;;;;;;;;",
";;;;;;;;;;;;;;;;;    $&&&&&%%$$  ;;;;;;;;;;;;;;;;;",
";;;;;;;;;;;;;;;;;;;#  &&&&&&%%$ #;;;;;;;;;;;;;;;;;",
";;;;;;;;;;;;;;;;;;;#$ %&&&&&&%  #;;;;;;;;;;;;;;;;;",
";;;;;;;;;;;;;;;;;;;;#          # ;;;;;;;;;;;;;;;;;",
";;;;;;;;;;;;;;;;;;;; $           ;;;;;;;;;;;;;;;;;",
";;;;;;;;;;;;;;;;;;;;  $%%&&&   =  ;;;;;;;;;;;;;;;;",
";;;;;;;;;;;;;;;;;;; ===     ===== ;;;;;;;;;;;;;;;;",
";;;;;;;;;;;;;;;;;;  ============== ;;;;;;;;;;;;;;;",
";;;;;;;;;;;;;;;;;  ====o++@+@+o===  ;;;;;;;;;;;;;;",
";;;;;;;;;;;;;;;   ===oo++@+@+++o==   ;;;;;;;;;;;;;",
";;;;;;;;;;;;;;; *  =oo++++@+@+++o==  ;;;;;;;;;;;;;",
";;;;;;;;;;;;;;; ** oo++++++@++++oo    ;;;;;;;;;;;;",
";;;;;;;;;;;;;;; **   OOOO+++O+++++ ** ;;;;;;;;;;;;",
";;;;;;;;;;;;;;;  *    O  OOOOOOO   ** ;;;;;;;;;;;;",
";;;;;;;;;;;;;;;; *   OO O      OO  ** ;;;;;;;;;;;;",
";;;;;;;;;;;;;;;;     +OO++++OO++O  ** ;;;;;;;;;;;;",
";;;;;;;;;;;;;;;;;;;  +OOOO+++OO    ** ;;;;;;;;;;;;",
";;;;;;;;;;;;;;;;;;;  +++++++++  XX   ;;;;;;;;;;;;;",
";;;;;;;;;;;;;;;;;;;; -++++++++ ... ;;;;;;;;;;;;;;;",
";;;;;;;;;;;;;;;;;;;;  -+++   + XXX  ;;;;;;;;;;;;;;",
";;;;;;;;;;;;;;;;;;;; - --- ; + XXXX ;;;;;;;;;;;;;;",
";;;;;;;;;;;;;;;;;;;; +-    ;   ...X ;;;;;;;;;;;;;;",
";;;;;;;;;;;;;;;;;;;; ++-- ;;;  XXX. ;;;;;;;;;;;;;;",
";;;;;;;;;;;;;;;;;;; ++OOO ;;;  .... ;;;;;;;;;;;;;;",
";;;;;;;;;;;;;;;;;;; +OOOO ;;;; XXX ;;;;;;;;;;;;;;;",
";;;;;;;;;;;;;;;;;;; OOOOO ;;;;;   ;;;;;;;;;;;;;;;;",
";;;;;;;;;;;;;;;;;;; OOOOO ;;;;;;;;;;;;;;;;;;;;;;;;",
";;;;;;;;;;;;;;;;;;; OOOO ;;;;;;;;;;;;;;;;;;;;;;;;;",
";;;;;;;;;;;;;;;;;;; OOOO ;;;;;;;;;;;;;;;;;;;;;;;;;",
";;;;;;;;;;;;;;;;;; OOOOO ;;;;;;;;;;;;;;;;;;;;;;;;;",
";;;;;;;;;;;;;;;;;;       ;;;;;;;;;;;;;;;;;;;;;;;;;",
";;;;;;;;;;;;;;;;;;;     ;;;;;;;;;;;;;;;;;;;;;;;;;;",
";;;;;;;;;;;;;;;;;;; XXX ;;;;;;;;;;;;;;;;;;;;;;;;;;",
";;;;;;;;;;;;;;;;;;; XXX ;;;;;;;;;;;;;;;;;;;;;;;;;;",
";;;;;;;;;;;;;;;;;;; XXX ;;;;;;;;;;;;;;;;;;;;;;;;;;",
";;;;;;;;;;;;;;;;;;; XXX ;;;;;;;;;;;;;;;;;;;;;;;;;;",
";;;;;;;;;;;;;;;;;;;; XX ;;;;;;;;;;;;;;;;;;;;;;;;;;",
";;;;;;;;;;;;;;;;;;;;;  ;;;;;;;;;;;;;;;;;;;;;;;;;;;",
";;;;;;;;;;;;;;;;;;;;;;;;;;;;;;;;;;;;;;;;;;;;;;;;;;"
};
