/* XPM */
static char *result[] = {
/* columns rows colors chars-per-pixel */
"50 50 21 1 ",
"  c black",
". c #12173B",
"X c #171D4B",
"o c gray47",
"O c #B8481F",
"+ c #E05320",
"@ c #FF5C26",
"# c #B37556",
"$ c #B08122",
"% c #CFC914",
"& c #E0D916",
"* c #F0EC18",
"= c #D18A64",
"- c #DB9169",
"; c #E3946D",
": c #F0A072",
"> c #259DDD",
", c #959595",
"< c #D0D0D0",
"1 c white",
"2 c None",
/* pixels */
"22222222222222222222222222222222222222222222222222",
"22222222222222222222222222222222222222222222222222",
"22222222222222222222222222222222222222222222222222",
"22222222222222222222222222222222222222222222222222",
"2222222222$222$22222222222222222222222222222222222",
"2222222222$$$%%22222222222222222222222222222222222",
"2222222$$$$%%%%$2222222222222222222222222222222222",
"2222222$%$&&&&&$$$22222222222222222     2222222222",
"222222$%**&&&&%%%$$222222222222222      2222222222",
"22222$%******&&&%$22        22222   22222222222222",
"22222$%********&&%$   2222    22  2222222222222222",
"22222$$*********&%%$     222     22222222222222222",
"22222$<<,,&&$**&&$%$ 222   222     222222222222222",
"22222$<<,,&&X$&&$$  222222     2     2222222222222",
"22222$XXXXX&XX     222222222222222     22222222222",
"222222 : 1::::;##   222    2222222222  22222222222",
"222222 :>1::;;=##%o    ,,,     2222222222222222222",
"22222 :::::;====#ooo,,,,@@@@@@  222222222222222222",
"22222 ::;;;=====ooo,,,           22  2   222222222",
"222222 OO======ooo,,,,,,,,,,,,,,,  :: ::  22222222",
"2222222 ==    oooo,,,,ooooooo,,,,, :::::-  2222222",
"22222222   22  ooooooo       oooo  ------  2222222",
"222222222222222  oooo  ++++               22222222",
"22222222222222222  o  ++++    +@@  222222222222222",
"222222222222222222     +   +++@@@  222222222222222",
"2222222222222222222222  +++@@@@@@   22222222222222",
"22222222222222222222222 +@+@@@@@@@@ 22222222222222",
"222222222222222222222  ++@+@@@@@@@@ 22222222222222",
"222222222222222222222 ++++@@@@@@@@@ 22222   222222",
"22222222222222222222 ++++@+@@@@@@@@ 222  ..  22222",
"2222222222222222222 ++@+@++ @@@@@@1 22  ..... 2222",
"222222222222222222 ++++++@   @@@@11   +....... 222",
"222222222222222222 +++++++@   @@11  ++++ ..... 222",
"222222222222222222 ++@+@@@@@@ @@1  1 +++   .... 22",
"222222222222222222  @++@@@@@@@ 1  11  ++  2 ... 22",
"222222222222222222  @@@@@@@@@@@  11@@ ++ 222 #. 22",
"2222222222222222222  @@@@@@@@@@@ @@@@@  22222  222",
"22222222222222222222             @@@@@@  222222222",
"222222222222222222222222222222222 @@@@@@  22222222",
"2222222222222222222222222222222222 @@@@@@ 22222222",
"22222222222222222222222222222222222 @@@@@  2222222",
"222222222222222222222222222222222222 @@@    222222",
"2222222222222222222222222222222222222        22222",
"222222222222222222222222222222222222222   XX 22222",
"222222222222222222222222222222222222222 XXXX  2222",
"222222222222222222222222222222222222222XXXX  22222",
"2222222222222222222222222222222222222  XXX  222222",
"2222222222222222222222222222222222222 :XX  2222222",
"2222222222222222222222222222222222222     22222222",
"22222222222222222222222222222222222222222222222222"
};
