/* XPM */
static char *result[] = {
/* columns rows colors chars-per-pixel */
"50 50 21 1 ",
"  c black",
". c #171D4B",
"X c gray47",
"o c #B8481F",
"O c #DE531D",
"+ c #E05320",
"@ c #FF5C26",
"# c #B37556",
"$ c #B08122",
"% c #CFC914",
"& c #E0D916",
"* c #F0EC18",
"= c #D18A64",
"- c #DB9169",
"; c #E3946D",
": c #F0A072",
"> c #259DDD",
", c #959595",
"< c #D0D0D0",
"1 c white",
"2 c None",
/* pixels */
"22222222222222222222222222222222222222222222222222",
"22222222222222222222222222222222222222222222222222",
"22222222222222222222222222222222222222222222222222",
"22222222222222222222222222222222222222222222222222",
"22222222222222222222222222222222222222222222222222",
"222222222$222$222222222222222222222222222222222222",
"222222222$$$$%$22222222222222222222222222222222222",
"222222$$2$%%%&$22222222222222222222222222222222222",
"222222$%$$&&&&$$$$$222          222222222222222222",
"222222$%**&&&&%%%$22    22222         222222222222",
"22222$$******&&&%$2  2222222222      2222222222222",
"2222$%*********&&%$$2        222222222222222222222",
"22222$%*********&%%$  22222    2222222222222222222",
"22222$%<,,*&$**&%$$ 2222222222    2   222222222222",
"22222$<<,,&&.$&&$  22222222222222   22222222222222",
"22222$.....&..     2222222222222222222222222222222",
"222222 : 1::::;##%    2222222     2   22  22222222",
"222222 :>1::;;=##%%XX,       ,,,,, :::  :  2222222",
"22222 :::::;=====XXX,,,,,,,,,,,,,, :::::-- 2222222",
"22222 ::::;=====XXX,,,XXXXXXXXXXXX ------  2222222",
"222222 oo;=====XXX,,,XX                  222222222",
"2222222 ===    XXXXXXX  ++++ 222222222222222222222",
"22222222    22  XXXXX +++++++  2222222222222222222",
"2222222222222222   XX +++     + 222222222222222222",
"222222222222222222          +++ 222222222222222222",
"222222222222222222222     +++++  22222222222222222",
"22222222222222222222  @@@@++++++ 22222222222222222",
"222222222222222222   11@@@@@@@+   2222222222222222",
"2222222222222222  @@1  11@@@@+  ++ 222222222222222",
"222222222222222 @@@@@11 1@@+++ +++  22222222222222",
"22222222222222 @@@@@@       + +++++  2222222222222",
"22222222222222 @@@@@@ 22222   ++++++ 2222222222222",
"22222222222222 @@@@@+      222 ++++++ 222222222222",
"22222222222222 +OOOOOO  ..    22 ++++   2222222222",
"222222222222222  OOOOO  ..... 222 +++++  222222222",
"2222222222222222   OOO  ..... 2222 ++++++ 22222222",
"2222222222222222222       ... 22222 +++++   222222",
"22222222222222222222222222 .. 222222 ++        222",
"222222222222222222222222222 . 2222222  2   ... 222",
"222222222222222222222222222 : 222222222222  .. 222",
"222222222222222222222222222   2222222222222 .. 222",
"2222222222222222222222222222222222222222222 .. 222",
"222222222222222222222222222222222222222222  .. 222",
"22222222222222222222222222222222222222222 ::.  222",
"22222222222222222222222222222222222222222     2222",
"22222222222222222222222222222222222222222222222222",
"22222222222222222222222222222222222222222222222222",
"22222222222222222222222222222222222222222222222222",
"22222222222222222222222222222222222222222222222222",
"22222222222222222222222222222222222222222222222222"
};
