/* XPM */
static char *result[] = {
/* columns rows colors chars-per-pixel */
"50 50 14 1 ",
"  c black",
". c #111638",
"X c #171D4B",
"o c gray47",
"O c #E05320",
"+ c #FF5C26",
"@ c #FF7D23",
"# c #B08122",
"$ c #CFC914",
"% c #E0D916",
"& c #F0EC18",
"* c #F0A072",
"= c #959595",
"- c None",
/* pixels */
"--------------------------------------------------",
"---------------------------- ---------------------",
"----------------------------  --------------------",
"-------     ----------------- --------------------",
"-------      ---------------- --------------------",
"-------  ----      -----##---   ------------------",
"------------------  ---####----  -----------------",
"------------------- ---#$$#----- -----------------",
"------------------  ####$$$####- -----------------",
"------------------ -#$$$$%%$$$## -----------------",
"------------------ #$$%%%%%%$$$  -----------------",
"------------------  $$%%&&&&&$  ------------------",
"------------------# $%%&&&&&&  #------------------",
"------------------#  %&&&&&&% $#------------------",
"------------------ #          #-------------------",
"------------------           $ -------------------",
"------------------  =   &&&%%$  ------------------",
"------------------ =====     === -----------------",
"----------------- ==============  ----------------",
"----------------  ===o+@+@++oo===  ---------------",
"---------------   ==o+++@+@++oo=== ---------------",
"--------------   ==o+++@+@++++oo== ---------------",
"-------------- *  o+++++@++++++o=   --------------",
"-------------- ** +OOOO+++O++++  ** --------------",
"-------------- **   O  OOOOOOO   ** --------------",
"--------------  *  OO O      OO  ** --------------",
"--------------- *  OOO++++OO++O  ** --------------",
"---------------    OOOOO+++OOOO  ** --------------",
"-----------------     OO+++++O+    ---------------",
"----------------- XXX OO++++O+O ------------------",
"----------------  ... O   +OOO+ ------------------",
"---------------- XXXX O - OOO+O ------------------",
"---------------- ....   -  +OOO ------------------",
"---------------- XXXX  --- O+OO ------------------",
"---------------- ....  --- OOOOO -----------------",
"----------------- XXX ---- OOOOO -----------------",
"------------------   ----- OOOOO -----------------",
"-------------------------- OOOOO -----------------",
"--------------------------- OOOO -----------------",
"--------------------------- OOOO -----------------",
"--------------------------- OOOOO ----------------",
"--------------------------- OOOOO ----------------",
"---------------------------- OOO  ----------------",
"---------------------------- XXX  ----------------",
"---------------------------- XXX -----------------",
"---------------------------- XXX -----------------",
"---------------------------- XXX -----------------",
"---------------------------- XX ------------------",
"-----------------------------  -------------------",
"--------------------------------------------------"
};
