/* XPM */
static char *result[] = {
/* columns rows colors chars-per-pixel */
"50 50 20 1 ",
"  c black",
". c #171D4B",
"X c gray47",
"o c #B8481F",
"O c #E05320",
"+ c #FF5C26",
"@ c #B37556",
"# c #B08122",
"$ c #CFC914",
"% c #E0D916",
"& c #F0EC18",
"* c #D18A64",
"= c #DB9169",
"- c #E3946D",
"; c #F0A072",
": c #259DDD",
"> c #959595",
", c #D0D0D0",
"< c white",
"1 c None",
/* pixels */
"11111111111111111111111111111111111111111111111111",
"11111111111111111111111111111111111111111111111111",
"11111111111111111111111111111111111111111111111111",
"11111111111111111111111111111111111111111111111111",
"11111111111111111111111111111111111111111111111111",
"111111111111111111111111111111111111#111#111111111",
"11111111111111111111111111111111111#$####111111111",
"111111111111111   11111111111111111#%$$$#1##111111",
"1111111111111111        1111111#####%%%%##$#111111",
"111111111111111111         11 11#$$$%%%%&&$#111111",
"11111111111111111111111111     1#$%%%&&&&&&##11111",
"111111111111111111111111      ##$%%&&&&&&&&&$#1111",
"11111111111111111111111   111 #$$%&&&&&&&&&$#11111",
"111111111111111    1   1111111 ##$%&&#%&>>,$#11111",
"1111111111111   11   1111111111  #%%#.%%>>,,#11111",
"1111111111111111111111111111111     ..%.....#11111",
"11111111  11   1     1111111    $@@-;;;;< ; 111111",
"1111111  ;  ;;; >>>>>       >XX$$@@*--;;<:; 111111",
"1111111 ==;;;;; >>>>>>>>>>>>>>XXX*****-;;;;; 11111",
"1111111  ====== XXXXXXXXXXXX>>>XXX*****-;;;; 11111",
"1111 1111                  XX>>>XXX*****-oo 111111",
"111   111111111111111 OOOO  XXXXXXX    *** 1111111",
"11  .  111111111111  OOOOOOO XXXXX  11    11111111",
"1  ....  111111111 O     OOO XX   1111111111111111",
"  ......   1111111 OOO          111111111111111111",
" ......  OO  1111  OOOOO     111111111111111111111",
" ...     OOO   11 OOOOOO++++  11111111111111111111",
" .. 111 OOOOOO     ++++++++<< 11111111111111111111",
"  ; 111  OOOOOOOOO   ++++<<    1111111111111111111",
"    1111 OOOOOOOOOOO  ++<< <<+  111111111111111111",
"111111111 OOOOOOOOOOO  +  <+++++  1111111111111111",
"111111111  OOOOOOOOO     <+++++++  111111111111111",
"1111111111  OOOOOO   1111 ++++++++  11111111111111",
"11111111111  OO    1111111 ++++++++  1111111111111",
"111111111111    11111111111 OO++++++ 1111111111111",
"1111111111111111111111111111  ++++++ 1111111111111",
"11111111111111111111111111111  ++++++ 111111111111",
"111111111111111111111111111111 ++++++ 111111111111",
"1111111111111111111111111111111 ++++++ 11111111111",
"11111111111111111111111111111111 +++++ 11111111111",
"11111111111111111111111111111111  ++++ 11111111111",
"111111111111111111111111111111111 ++    1   111111",
"111111111111111111111111111111111      .  ; 111111",
"1111111111111111111111111111111111    ....; 111111",
"1111111111111111111111111111111111  ......  111111",
"11111111111111111111111111111111111 ....   1111111",
"11111111111111111111111111111111111  .   111111111",
"111111111111111111111111111111111111   11111111111",
"11111111111111111111111111111111111111111111111111",
"11111111111111111111111111111111111111111111111111"
};
